<svg xmlns="http://www.w3.org/2000/svg" xmlns:xlink="http://www.w3.org/1999/xlink" version="1.1" viewBox="0 0 2000 1500">
<defs>
<clipPath id="clip_0">
<path transform="matrix(1,0,0,-1,0,1500)" d="M0 1500H2000V0H0Z"/>
</clipPath>
</defs>
<g id="layer_1" data-name="Layer 1">
<g clip-path="url(#clip_0)">
<path transform="matrix(1,0,0,-1,670.6396,971.5381)" d="M0 0C-29.794 0-41.503 29.096-12.774 65.985-6.029 74.496 6.378 86.554 14.539 92.932L45.75 115.649 126.99 162.115C126.99 151.105 115.632 117.414 111.018 106.771 93.281 67.052 69.515 28.38 29.445 8.161 22.351 4.613 10.293 0 0 0M67.034 272.417C70.948 280.228 93.648 310.739 101.093 322.43 122.01 356.838 147.558 409.333 141.18 449.071 137.982 467.874 128.755 477.083 117.414 477.083 89.384 477.083 53.91 422.107 39.021 397.275 19.153 360.385 1.066 318.533-10.992 278.096L-15.972 262.142C-17.387 257.528-18.453 250.433-21.634 246.169-21.634 251.849-20.568 255.746-19.52 261.774L-14.189 307.541C-10.992 328.826-7.811 349.044-6.745 370.329-5.679 381.67-4.264 390.18-4.264 402.238-4.264 421.408-1.782 446.938-13.84 461.845-17.021 466.091-20.568 467.874-24.482 467.874-41.153 467.874-59.589 431.333-64.552 420.691L-75.562 396.576C-83.705 374.575-91.167 351.525-93.648 327.76-95.413 312.854-96.479 295.833-90.45 281.993-86.903 274.898-82.656 271.351-75.194 271.351-72.713 271.351-69.533 271.718-66.334 272.417-63.137 286.606-75.562 274.549-80.874 288.389-84.771 299.73-83.355 318.533-81.59 331.307-76.26 367.48-61.372 406.152-41.503 435.947-37.956 442.325-32.643 452.251-24.832 452.967-23.049 446.222-22.001 440.91-20.568 433.099-19.869 426.371-20.568 415.361-20.568 407.917-20.568 393.378-22.35 377.773-24.832 363.234-30.86 303.994-40.437 246.169-45.767 186.23L-52.495 119.546C-53.211 110.319-54.626 105.356-45.767 103.574-40.437 106.073-40.087 106.771-38.672 112.801L-31.926 157.852C-28.379 177.004-23.049 193.675-18.453 212.128-.716 282.36 37.956 394.793 87.969 444.807 94.347 451.203 106.772 463.61 115.632 463.61 120.245 463.61 124.142 460.062 125.924 450.835 132.303 418.909 108.188 365.715 97.196 345.846 80.158 316.768 60.656 291.936 41.853 264.623 39.371 261.425 37.589 258.594 35.107 255.046 31.21 250.433 20.917 236.593 32.626 234.461 33.692 234.461 34.408 234.112 35.107 234.112 37.239 234.112 37.589 235.178 39.021 235.894 54.976 246.169 57.807 255.746 87.252 265.322 91.516 266.755 95.763 267.454 99.31 267.454 132.652 267.454 134.435 211.412 130.171 184.099V183.032C128.406 176.654 122.727 175.238 112.084 169.21 74.129 147.209 41.136 130.538 5.68 102.875-9.926 90.817-25.181 74.496-34.408 56.759-54.626 17.737-34.059-12.058 .699-12.058 21.983-12.058 48.598-1.065 74.478 24.832 110.669 61.022 133.019 108.188 142.229 158.2 146.492 179.136 142.229 170.625 168.126 189.777 173.806 194.024 179.118 197.938 184.098 202.901L213.893 230.564C216.724 232.696 218.506 234.461 220.621 237.31 224.168 240.141 224.885 241.923 227.366 245.47 230.564 247.952 231.979 250.083 234.461 253.631 238.008 258.227 237.659 258.943 236.226 264.623H234.112C224.885 264.623 225.234 260.359 218.856 253.264 210.346 244.404 196.505 229.865 187.646 222.403L170.608 208.214C165.645 204.317 152.521 192.608 146.492 191.193 146.492 229.498 144.36 278.096 102.508 281.294 101.442 281.294 100.376 281.644 99.31 281.644 87.619 281.644 77.327 274.898 67.034 272.417" fill="#c5a15e"/>
<path transform="matrix(1,0,0,-1,896.1934,714.0103)" d="M0 0C0-9.943-.35-18.803 8.161-27.313 14.189-33.342 21.284-35.823 28.729-35.823 50.38-35.823 74.845-14.189 87.969-1.066 91.167 2.831 91.167 3.181 90.101 8.51 79.458 8.51 85.138 7.095 70.599-4.264 68.117-6.029 67.051-7.444 64.203-9.576 57.108-14.906 42.219-25.181 29.794-25.181 25.548-25.181 21.284-23.766 18.104-20.568 12.058-14.539 12.774-8.877 12.774-1.415 23.766-.716 36.54 9.577 42.219 15.955 53.211 29.795 53.211 43.984 37.606 43.984 20.585 43.984 0 17.737 0 0M15.972 8.51C18.453 17.37 30.162 31.21 39.738 32.993 38.672 21.634 24.832 13.124 15.972 8.51" fill="#c5a15e"/>
<path transform="matrix(1,0,0,-1,975.645,733.8789)" d="M0 0C0-12.774 1.066-18.803 14.189-18.803 24.482-18.803 35.474 14.539 42.202 19.152 42.202 3.897 53.561-14.539 71.297-14.539 77.327-14.539 84.072-12.407 91.167-7.444L101.809 1.066C119.895 18.454 117.763 27.313 112.451 27.313 110.319 27.313 107.837 26.247 106.055 23.766 101.092 18.454 100.027 15.255 93.281 9.227 85.487 1.416 78.042-2.831 71.297-2.831 63.853-2.831 57.458 2.831 54.626 15.605 51.428 29.096 57.458 45.05 45.05 45.05 40.437 45.05 25.898 14.906 18.803 3.897L15.955-.35C14.189-2.481 15.255-1.066 14.189-2.132 14.189 9.576 19.152 23.049 23.766 30.511 34.059 48.248 41.154 53.211 46.465 53.211 53.211 53.211 57.458 45.05 62.42 45.05 71.647 45.05 62.42 65.269 45.75 65.269 20.935 65.269 0 20.218 0 0" fill="#c5a15e"/>
<path transform="matrix(1,0,0,-1,1183.1299,787.7891)" d="M0 0C0-34.758 6.028-97.195 35.823-116.348 41.853-120.612 48.248-122.377 54.276-122.377 119.896-122.377 185.514 89.035 201.468 142.228L214.242 185.514C215.308 189.061 214.242 186.58 215.308 187.995L208.93 131.953C199.703 49.297 180.184-112.801 148.974-183.749 144.36-193.675 129.104-222.054 129.104-230.564 129.104-234.111 131.236-235.527 133.718-235.527 135.85-235.527 137.981-234.461 139.397-233.046L154.303-208.563C192.259-142.246 209.279-20.935 220.271 58.174 224.885 91.866 228.082 130.17 231.979 163.513 234.811 185.514 244.387 271.7 240.14 290.153 237.658 291.219 235.526 291.918 233.744 291.918 226.649 291.918 225.601 284.125 223.469 275.247 205.016 198.987 185.863 121.66 156.784 48.598 139.048 3.547 114.565-58.523 80.157-93.998 70.581-103.574 62.42-107.488 55.325-107.488 30.144-107.488 20.935-54.627 20.935-25.897 20.935 76.61 43.984 165.645 78.393 261.058 81.223 267.803 91.166 291.569 91.166 297.598 91.166 297.598 91.166 296.881 89.733 298.664L86.186 301.495C74.845 299.013 72.363 287.672 65.269 274.181 29.445 202.884 0 75.544 0 0" fill="#c5a15e"/>
<path transform="matrix(1,0,0,-1,1427.8506,749.4839)" d="M0 0C0-18.454 7.812-27.663 17.021-27.663 27.663-27.663 40.787-15.255 46.116 9.227 53.91 45.749 36.89 51.795 35.125 58.523 36.89 61.372 40.088 63.486 41.153 65.968 42.202 68.816 40.088 74.495 35.475 74.495 18.087 74.495 0 15.955 0 0M17.737-12.058C9.926 4.264 26.248 36.173 28.729 46.465 41.153 38.305 32.276-8.161 17.737-12.058" fill="#c5a15e"/>
<path transform="matrix(1,0,0,-1,1493.46,726.4346)" d="M0 0C0-12.058-1.765-29.428 14.557-29.428 25.549-29.428 42.22-2.481 47.898 7.461 50.014 11.358 54.994 19.52 57.824 21.284 57.824 4.264 59.24-25.182 82.656-25.182 93.299-25.182 105.007-17.737 114.583-8.86 118.829-4.963 135.151 8.528 135.151 14.557 135.151 18.453 132.303 19.152 129.472 19.152 122.727 19.152 99.327-13.823 83.723-13.823 76.978-13.823 71.665-7.794 69.533 9.227 68.467 18.453 73.08 41.87 63.504 41.87 56.759 41.87 54.627 36.19 50.014 29.445L28.729-1.765C25.182-6.378 21.284-13.124 15.605-14.889 10.293 8.877 31.927 46.116 31.927 47.532 31.927 50.729 30.861 50.729 30.512 53.211 28.03 54.626 25.898 54.994 24.133 54.994 21.284 54.994 18.803 53.561 16.321 50.729 7.462 39.371 0 15.255 0 0" fill="#c5a15e"/>
<path transform="matrix(1,0,0,-1,1679.0274,847.1855)" stroke-width="23.198" stroke-linecap="butt" stroke-miterlimit="10" stroke-linejoin="miter" fill="none" stroke="#c5a15e" d="M0 0C-53.594-337.428-370.579-567.521-708.007-513.927-1045.436-460.333-1275.528-143.347-1221.934 194.081-1168.34 531.509-851.354 761.602-513.927 708.008-176.499 654.414 53.595 337.428 0 0Z"/>
<path transform="matrix(1,0,0,-1,1637.0332,816.4355)" stroke-width="23.422" stroke-linecap="butt" stroke-miterlimit="10" stroke-linejoin="miter" fill="none" stroke="#c5a15e" d="M0 0C-54.11-340.68-374.151-572.99-714.831-518.88-1055.511-464.77-1287.821-144.729-1233.71 195.951-1179.6 536.63-859.559 768.941-518.88 714.83-178.2 660.72 54.11 340.679 0 0Z"/>
<path transform="matrix(1,0,0,-1,1392.3516,1268.1856)" d="M0 0C3.256 3.594 9.842 4.917 8.12 11.906 11.034 18.887 16.968 22.674 23.165 26.188 25.916 27.626 28.537 29.322 31.385 30.583 34.817 31.787 37.18 34.97 40.605 35.984 48.328 38.272 52.918 33.923 54.552 27.28 56.667 18.668 49.248 20.628 45.22 20.658 56.683 .142 75.771 7.823 92.742 7.299 94.711 6.965 96.517 6.224 98.227 5.214 99.374 4.528 100.432 3.725 101.431 2.837 103.502 .355 106.393-1.909 103.911-5.713 94.005-9.036 85.201-14.405 79.95-23.446 76.004-30.241 68.575-31.536 63.481-36.508 57.429-42.415 55.164-46.709 62.85-52.429 66.828-50.467 69.996-46.767 68.635-42.92 65.068-32.833 70.437-30.447 78.476-29.265 80.207-29.011 81.573-27.589 83.084-26.65 87.04-24.193 90.788-15 94.998-21.17 98.747-26.666 102.631-35.604 97.414-43.643 95.509-46.578 92.326-48.652 91.838-52.543 91.169-57.883 95.203-64.365 88.165-68.196 83.233-70.881 77.756-68.317 72.685-68.903 71.523-75.725 77.147-81.508 73.182-87.558 61.431-87.596 52.157-83.678 44.932-73.545 31.699-54.992 22.369-35.532 24.646-12.016 24.942-8.952 24.742-5.841 24.799 .17 15.055-8.251 8.777-16.025-.055-20.397-3.562-13.589 .339-6.8 0 0" fill="#59b59a"/>
<path transform="matrix(1,0,0,-1,1465.5332,1355.7432)" d="M0 0C-.842 2.42-1.594 4.874-2.539 7.251-7.334 19.307-9.394 28.229 9.256 20.993 14.806 18.84 18.745 23.255 15.927 29.635 13.121 35.984 14.026 39.805 20.186 44.065 29.791 50.709 15.805 58.467 20.375 66.309 13.682 61.785 11.085 51.563 .279 54.747-1.777 55.354-5.187 54.284-1.513 49.19 3.172 42.697-1.338 36.046-7.817 31.88-10.554 30.121-13.631 29.803-16.514 31.942-7.817 38.222-29.428 39.63-18.75 46.612-3.671 56.471 6.975 71.349 20.923 82.556 24.836 85.698 27.398 83.608 30.319 81.483 30.319 81.483 30.692 80.259 30.709 80.284 31.766 77.746 33.885 80.034 35.364 79.301 36.527 79.088 37.615 78.74 38.688 78.271 42.502 75.671 48.509 74.896 47.214 68.059 41.032 66.939 42.101 63.529 43.115 58.6 46.693 41.205 47.31 23.937 32.476 10.68 23.369 2.541 14.085-6.404 0 0" fill="#67bca2"/>
<path transform="matrix(1,0,0,-1,1666.5049,1035.5498)" d="M0 0C15.132-5.27 24.52-15.428 26.866-31.576 27.197-37.863 22.181-40.726 18.68-44.658 12.512-51.588 5.184-57.732 2.511-67.179 2.393-68.581 2.063-69.93 1.584-71.247-6.494-81.006-11.972-95.263-29.276-89.271-34.771-86.668-37.791-81.895-40.323-76.683-43.974-64.356-35.901-54.954-32.301-44.427-28.606-37.146-27.09-28.755-21.304-22.53-18.06-19.032-13.686-18.252-9.255-17.327 6.688-14 6.675-13.931 0 0" fill="#95dac1"/>
<path transform="matrix(1,0,0,-1,1395.3272,1362.5938)" d="M0 0C30.669-2.835 45.454-48.044 33.031-70.646 20.314-69.34 11.166-78.992-.323-81.516-3.966-79.564-6.956-77.151-6.708-72.467 .187-67.95-1.685-57.481 6.022-53.524 4.013-53.178 1.942-53.213-.081-53.899-3.281-54.982-6.499-58.449-9.834-54.916-12.879-51.69-10.337-48.131-9.18-44.889-7.359-39.786-8.772-34.065-5.713-28.896-9.734-28.844-13.956-33.327-17.109-28.485-19.566-24.71-16.95-21.575-14.444-19.023-8.808-13.283-6.278-5.221 0 0" fill="#54b296"/>
<path transform="matrix(1,0,0,-1,1617.502,1041.706)" d="M0 0C14.304 10.599 30.143 10.689 46.562 6.798 43.754-2.184 34.331-3.669 28.32-9.029 24.052-12.836 18.787-15.471 16.954-21.441 10.035-32.449-1.822-37.635-11.484-45.392-16.64-49.531-21.035-53.533-19.277-60.908-18.556-66.252-17.779-71.594-19.505-76.897-22.666-82.405-20.587-90.987-29.096-93.383-30.211-93.302-31.327-93.219-32.442-93.138-33.324-90.639-32.714-86.592-34.754-85.727-47.745-80.214-43.586-74.063-35.617-68.265-39.503-58.514-59.562-69.768-55.506-51.5-53.924-48.189-50.424-46.017-49.919-42.068-42.598-34.445-35.276-26.823-27.955-19.201-12.31-27.713-4.718-12.265 6.444-7.562 4.014-5.352-3.721-7.567 0 0" fill="#53c19c"/>
<path transform="matrix(1,0,0,-1,1403.2354,1461.0615)" d="M0 0C-3.175-.845-6.35-1.689-9.525-2.534-12.661-1.709-15.795-1.831-18.926-2.564-30.678-4.607-40.131 1.646-50.092 6.069-51.843 11.477-57.644 16.528-51.556 22.623-49.426 22.532-47.486 21.873-45.169 23.02-33.263 28.91-30.703 27.667-27.708 14.822-23.107 19.002-26.609 22.521-28.855 25.024-32.162 28.713-37.175 27.848-41.292 26.568-44.415 25.6-46.264 21.32-50.533 22.531-54.116 23.076-55.745 25.975-57.742 28.442-61.801 35.612-68.481 41.714-67.099 51.125-57.809 56.994-52.584 64.438-57.606 75.833-57.354 78.401-56.026 80.301-53.99 81.742-46.645 87.27-54.48 96.9-48.352 102.766-42.813 106.497-37.088 103.991-31.415 103.272-27.934 103.171-25.887 100.51-27.802 98.239-35.563 89.039-31.492 75.435-40.09 66.711-41.918 64.856-42.141 62.695-39.196 61.67-28.751 58.036-35.179 53.677-38.589 49.42-40.006 48.331-37.466 48.849-37.41 49.003-36.026 52.835-33.472 54.694-29.279 52.858-24.616 49.211-20.316 45.323-20.1 38.79-20.465 36.708-24.026 37.14-23.567 36.698-18.23 31.575-14.829 25.169-12.67 18.434-10.643 12.113-5.374 14.678-1.733 12.909 1.496 8.957 8.108 5.455 0 0" fill="#038d6f"/>
<path transform="matrix(1,0,0,-1,1484.9404,1262.1065)" d="M0 0C-10.096-1.716-20.538-5.783-30.174-4.366-37.296-3.318-43.743 4.481-49.674 10.13-51.412 11.785-56.532 12.872-54.478 16.798-52.446 20.684-48.641 20.118-45.122 18.174-43.709 17.393-42.479 15.619-40.499 17.014-43.035 28.416-47.231 30.685-54.946 24.229-57.151 22.383-58.263 21.985-60.334 23.447-58.142 37.99-45.23 45.65-38.62 57.354-35.323 60.493-33.568 65.134-29.174 67.234-15.521 74.165-10.502 88.988-.177 98.96 5.504 97.159 9.003 93.386 10.178 87.51 7.068 83.102 3.96 78.691 .851 74.282-1.193 69.991-3.604 65.861-4.831 61.21-9.495 55.291-14.757 49.968-20.769 45.415-33.407 30.471-33.407 30.471-11.633 17.041-7.24 11.7 3.108 10.428 0 0" fill="#60b99d"/>
<path transform="matrix(1,0,0,-1,1455.7666,1194.8721)" d="M0 0C-.806-3.649-1.712-7.253-4.627-9.919-8.214-9.055-9.641-6.204-9.398-3.119-8.971 2.316-13.404-2.991-15.143-.101-17.597 3.978-17.602-1.254-18.228-2.213-20.375-5.505-21.06-9.426-21.961-13.222-31.366-22.542-30.845-36.456-37.563-47.02-37.771-47.587-37.984-48.15-38.197-48.714-44.667-51.909-48.179-59.085-55.295-61.407-58.878-58.727-62.461-56.045-66.045-53.364-69.852-43.475-53.484-50.327-57.704-38.786-56.954-40.036-58.251-40.307-59.495-40.49-63.396-41.069-68.241-42.554-69.577-37.434-70.729-33.02-66.567-30.68-63.118-28.521-60.934-27.154-56.22-26.999-59.39-22.283-60.029-20.538-60.06-18.815-59.416-17.082-54.586-6.62-46.41 2.426-46.051 14.775-40.746 23.71-32.196 29.619-25.315 37.084-20.82 38.086-19.151 34.063-16.357 32.042-16.775 28.074-19.582 25.043-20.762 20.813-16.997 19.554-13.732 24.088-10.136 21.805-5.104 15.306-2.769 7.553 0 0" fill="#049473"/>
<path transform="matrix(1,0,0,-1,1354.8838,1358.2959)" d="M0 0C2.41-6.914-2.289-14.248 1.419-21.391 2.107-22.717-1.792-21.852-3.535-20.992-6.292-22.024-7.399-17.009-12.076-20.367-20.011-26.064-28.897-31.536-38.814-32.657-36.723-40.975-16.212-37.806-25.368-53.885-25.869-54.723-27.386-53.463-27.713-54.906-27.146-54.359-26.456-54.085-25.566-54.055-15.617-52.847-15.396-59.97-17.877-65.349-19.919-69.775-20.484-75.459-24.987-78.707-37.291-69.904-45.525-57.368-48.73-43.452-51.242-32.547-55.304-26.84-65.414-22.571-71.126-20.16-78.147-18.473-82.422-12.891-79.272-8.555-72.136-13.394-69.728-7.349-68.911-6.496-67.923-6.058-66.745-6.068-62.054-8.345-56.832-10.894-53.288-13.811-46.122-19.707-41.771-16.704-35.925-12.938-25.003-5.902-13.629 .296 0 0" fill="#007a5b"/>
<path transform="matrix(1,0,0,-1,1538.0908,1194.7393)" d="M0 0C13.958-2.584 23.851-10.364 29.733-23.267 25.946-28.37 17.931-20.96 15.873-26.803 13.546-33.406 20.245-38.89 21.708-45.379 23.154-51.797 33.246-47.576 34.704-54.803 31.874-69.504 24.601-80.789 10.236-86.621 11.782-74.058 1.542-65.35-.5-53.954-1.135-45.935-7.591-39.276-6.008-30.734-4.369-22.614-5.438-14.032-1.969-6.219-1.15-4.207-.813-2.025 0 0" fill="#7ac8ae"/>
<path transform="matrix(1,0,0,-1,1540.4873,1247.9668)" d="M0 0C.733-3.807 1.207-7.321 4.393-10.546 10.782-17.015 12.533-24.897 7.84-33.394 4.082-36.615-.428-37.132-5.12-36.992-10.782-32.33-6.648-27.601-5.27-22.889-5.002-12.432-12.134-7.491-20-3.1-21.761-2.299-23.102-1.063-23.96 .679-25.215 6.153-25.74 11.995-29.302 16.555-33.731 22.225-39.219 25.016-46.134 20.285-48.518 19.042-49.612 16.417-51.678 14.926-59.88 9-64.063 10.825-65.746 21.017-66.108 23.214-66.735 25.19-68.21 26.85-70.855 30.47-79.309 26.187-78.564 34.388-71.49 37.262-68.717 45.618-61.239 47.979-60.763 48.009-60.287 48.039-59.827 48.082-59.51 47.094-58.896 46.616-58 46.661-58.29 47.507-58.386 48.377-58.285 49.301-57.841 50.313-57.111 50.984-56.094 51.346-54.733 51.39-53.371 51.434-52.01 51.477-46.036 46.27-51.581 41.302-52.268 36.319-46.236 40.027-42.234 51.285-32.416 41.82-31.732 39.706-31.715 37.39-30.579 35.395-28.695 31.925-26.046 29.25-22.451 27.514-13.519 19.513-4.179 11.857 0 0" fill="#1b9f7c"/>
<path transform="matrix(1,0,0,-1,1495.7891,935.6807)" d="M0 0C-.671 15.437 2.903 29.797 10.909 43.035 14.051 45.085 18.623 44.641 18.95 41.79 20.224 30.68 29.207 33.665 35.475 31.642 40.216 26.783 38.663 21.17 37.408 15.589 28.087 4.432 40.118 3.256 45.269-1.129 48.499-3.793 50.62-7.033 50.617-11.381 50.104-15.399 48.114-18.836 46.27-22.331 36.848-26.976 30.227-22.905 24.428-8.9 25.344-7.361 21.64-8.033 23.429-8.12 22.531-14.863 19.236-17.77 12.87-13.866 4.263-8.59 3.534-1.774 9.831 9.637 4.104 8.924 9.011-2.639 0 0" fill="#31ad86"/>
<path transform="matrix(1,0,0,-1,1495.7891,935.6807)" d="M0 0C6.051 2.117 2.075 10.39 7.736 12.665 10.355 13.718 13.285 17.003 15.815 13.062 17.497 10.443 15.666 9.032 13.256 6.971 5.35 .213 6.491-8.032 15.374-12.997 16.302-13.516 18.077-13.634 18.869-13.085 22.687-10.441 21.278-6.651 19.368 .07 27.195-8.624 30.595-16.979 38.105-21.872 41.194-23.884 42.57-23.552 44.662-21.504 47.559-21.977 48.434-24.378 49.544-26.564 52.382-36.203 61.47-39.448 68.376-44.936 69.759-47.488 69.278-49.822 67.562-52.013 66.143-53.401 64.46-54.068 62.461-53.847 58.708-52.104 54.956-50.442 51.545-54.506 50.061-55.465 48.503-55.8 46.835-55.021 44.854-53.395 44.217-50.605 41.87-49.288 40.897-48.972 39.94-48.68 38.938-48.487 34.808-48.472 31.518-46.945 29.392-43.29 24.606-38.171 16.902-41.189 11.813-36.977 5.323-25.467 1.129-13.223 0 0" fill="#4cb895"/>
<path transform="matrix(1,0,0,-1,1667.04,1104.7959)" d="M0 0C-3.144 14.602 10.898 19.286 16.775 28.65 19.029 32.24 23.092 34.696 26.331 37.669 36.247 20.902 27.501-4.542 8.583-17.186-.604-23.327-10.313-28.545-21.204-31.142-25.72-28.191-30.641-25.474-28.381-18.636-12.875-21.62-8.971-6.953-.007 .014 2.503 1.583 5.377 2.422 8.093 4.041 4.776 3.621 2.637 1.315 0 0" fill="#84cfb6"/>
<path transform="matrix(1,0,0,-1,1532.2129,919.9053)" d="M0 0C-.632 5.015-1.263 10.028-1.894 15.042-4.876 18.67-6.166 22.68-4.677 27.319-3.875 28.903-2.894 30.729-1.283 31.201 9.311 34.309 3.494 39.424 .457 44.235 10.083 49.649 20.199 50.695 30.774 47.63 33.644 42.718 31.771 38.102 29.962 33.496 29.708 30.005 31.798 27.196 32.774 24.056 34.961 15.883 31.153 8.569 29.506 .938 24.381-3.007 20.69-12.283 12.206-2.54 10.117-.141 6.693-5.849 3.126-5.854-.144-5.093-.504-2.776 0 0" fill="#7ccaaf"/>
<path transform="matrix(1,0,0,-1,1513.4248,1034.9746)" d="M0 0C7.871-8.271 11.305-18.804 14.903-29.251 18.364-31.317 16.444-33.229 14.75-35.153 8.97-36.764 8.41-42.054 6.694-46.562 3.378-55.28-1.756-62.291-11.161-65.212-12.423-65.445-13.625-65.271-14.777-64.709-16.396-63.047-17.616-60.82-16.952-58.773-14.086-49.933-17.28-42.877-22.861-36.361-22.141-30.721-20.914-25.033-18.495-20.029-15.725-14.299-17.217-10.092-20.706-5.771-15.654 2.765-8.823 4.954 0 0" fill="#48b592"/>
<path transform="matrix(1,0,0,-1,1491.0664,1072.0674)" d="M0 0C9.169-3.336 13.961-8.518 8.512-18.68 7.036-21.432 7.336-24.719 8.958-27.634 9.486-29.311 8.427-30.681 8.09-32.191 8.071-32.272 8.416-32.362 8.555-32.186 9.667-30.765 9.436-29.206 8.957-27.633 19.747-21.29 27.194-12.491 28.544 .338 29.286 7.39 32.696 3.687 35.625 2.524 37.776 .257 37.62-2.431 37.061-5.199 33.655-14.79 31.366-24.684 28.974-34.566 27.755-39.6 26.78-45.126 21.208-47.754 19.653-47.799 18.672-47.068 18.259-45.57 2.632-43.126-13.93-44.993-28.03-35.521-25.771-30.361-19.183-31.679-16.214-27.581-6.76-20.96-6.618-9.451-1.903-.35-1.27-.23-.635-.115 0 0" fill="#35ab85"/>
<path transform="matrix(1,0,0,-1,1381.6973,1423.6026)" d="M0 0C-1.459 5.857-6.468 9.358-9.438 14.214-10.898 17.887-12.072 21.611-15.236 24.456-17.235 26.255-18.624 30.017-16.369 31.548-9.832 35.985-9.593 43.194-6.452 49.036-2.772 55.877-4.201 60.479-6.082 66.225 .987 66.372 7.878 65.844 13.63 61.009 13.719 52.627 7.358 47.578 3.15 41.55 1.493 39.176-1.832 37.953-1.972 34.125 3.02 30.722 5.82 35.914 10.437 37.418 10.397 27.074 9.989 17.159 4.246 7.769 10.622 5.027 12.928 17.929 19.546 10.382 20.863 8.88 26.339 11.355 26.35 6.63 26.365-.424 22.15 5.773 20.006 5.057 16.398 3.852 17.227 1.517 17.189-1.212 17.118-6.545 14.881-10.479 8.68-10.453 2.319-9.848 1.349-4.768 0 0" fill="#45aa8d"/>
<path transform="matrix(1,0,0,-1,1513.4248,1034.9746)" d="M0 0C-7.106-.207-14.03-1.283-20.542-4.319-21.717-6.709-22.656-9.247-22.648-11.878-22.626-19.499-24.128-25.56-33.077-27.588-36.961-28.467-38.319-33.236-40.616-36.414-41.485-37.35-42.547-37.968-43.782-38.29-50.053-36.9-52.515-31.963-49.084-27.557-40.051-15.948-43.443-4.183-46.541 7.895-41.654 19.195-33.352 22.85-18.006 20.469-9.775 15.605-3.008 9.457 0 0" fill="#54b997"/>
<path transform="matrix(1,0,0,-1,1562.5215,981.3262)" d="M0 0C-9.901 2.705-17.52 7.786-19.51 18.73-16.146 24.944-10.172 22.575-5.27 22.638 4.075 22.754 13.286 22.62 21.82 27.405 25.398 29.411 29.941 30.741 32.548 26.534 35.841 21.218 28.91 20.339 26.603 17.909 32.227 20.49 36.34 20.836 38.57 14.057 37.086 4.446 28.127-1.074 25.406-10.009 15.528-10.249 7.435-5.962 0 0" fill="#7dceb1"/>
<path transform="matrix(1,0,0,-1,1242.6172,1252.208)" d="M0 0C24.445 10.809 41.556 1.788 50.848-26.805 47.896-27.685 45.129-26.4 42.274-26.13 35.944-25.187 29.76-29.303 23.406-26.727 16.69-20.603 16.61-31.187 12.311-31.189 1.99-31.747 2.841-22.744 .01-16.868-.588-11.252-2.5-5.623 0 0" fill="#4baf93"/>
<path transform="matrix(1,0,0,-1,1561.9033,895.3594)" d="M0 0C-1.009 3.064-2.018 6.128-3.025 9.191 4.118 10.364 1.923 18.967 6.996 21.787 29.081 16.947 44.027-2.745 45.559-29.021 44.015-33.115 40.95-32.613 37.719-31.626 33.547-28.946 32.391-23.421 27.79-21.142 20.462-19.144 15.963-12.662 8.416-10.152-.701-7.118 7.379-2.293 9.848 1.791 6.465 1.07 3.39-.45 0 0" fill="#7bcaaf"/>
<path transform="matrix(1,0,0,-1,1242.831,1351.9483)" d="M0 0C-3.677 3.959-9.178 6.345-10.575 12.269-9.763 25.461-6.428 28.399 4.659 23.915 10.813 21.428 13.551 25.318 17.322 27.975 18.895 28.825 16.786 28.104 18.468 28.639 25.499 30.876 30.757 38.959 39.059 36.335 49.868 32.918 40.051 22.37 44.979 16.615 43.771 3.737 31.833 4.945 24.081 .643 19.309 .227 15.228-3.499 10.115-2.38 7.62 2.096 2.798-3.221 0 0" fill="#007556"/>
<path transform="matrix(1,0,0,-1,1212.7988,1303.7734)" d="M0 0C-1.381 18.632 6.607 33.271 19.522 45.811 24.272 45.662 27.236 43.279 28.453 38.705 26.636 32.292 36.587 28.062 31.807 21.103 27.033 20.083 27.131 17.062 29.315 13.836 32.452 9.206 33.706 4.492 31.463-.843 30.829-1.946 29.977-2.844 28.926-3.559 18.942-5.193 9.282-4.128 0 0" fill="#1d977a"/>
<path transform="matrix(1,0,0,-1,1212.7988,1303.7734)" d="M0 0C9.822 2.568 18.984-2.501 28.588-2.467 33.181-5.002 38.963-4.427 43.182-7.637 47.588-10.988 52.409-14.614 48.041-21.276 42.933-30.894 39.738-31.648 31.219-25.248 27.161-22.2 24.02-25.047 19.457-35.906 13.812-31.915 10.98-25.907 8.039-19.978 5.809-13.211 6.926-5.068-.062-.256Z" fill="#00896b"/>
<path transform="matrix(1,0,0,-1,1430.4512,1157.7881)" d="M0 0C-.789-13.05-15.203-15.345-19.948-25.271-20.096-26.566-20.241-27.878-20.783-29.068-23.219-34.414-27.57-37.807-33.154-35.948-39.243-33.921-36.363-27.917-36.586-23.442-35.904-15.889-38.489-8.522-37.999-.969-25.558 8.163-12.907 9.145 0 0" fill="#4fb294"/>
<path transform="matrix(1,0,0,-1,1328.5947,1412.6602)" d="M0 0C6.737 12.609-9.683 9.406-11.503 16.586-12.126 19.044-20.735 16.866-17.18 23.665-15.117 27.606-12.532 32.646-9.334 24.214-2.09 31.999 10.614 30.894 16.818 40.232 17.883 41.835 18.646 43.148 20.729 43.021 26.11 40.801 17.174 35.553 22.755 33.372 21.187 31.242 19.621 29.111 18.055 26.98 13.151 19.712 8.223 12.452 9.183 3.013 9.994-5.446 16.042-11.451 19.372-18.73 18.14-25.362 11.4-25.965 7.449-29.621 5.399-27.861 3.351-26.103 1.302-24.343 3.552-19.956-.135-14.498 6.342-10.041 10.694-7.048 6.582-.812 0 0" fill="#006c4c"/>
<path transform="matrix(1,0,0,-1,1495.419,1014.50588)" d="M0 0C-9.699-2.616-21.032-1.678-26.996-12.416-27.234-18.172-30.359-21.506-35.783-22.925-37.826-23.321-39.835-23.212-41.773-22.416-47.923-16.788-42.47-11.975-39.792-6.357-45.076-9.315-46.534-14.459-50.18-17.434-53.751-20.351-57.679-26.302-62.499-18.591-52.473 8.76-21.714 17.909 0 0" fill="#81cfb3"/>
<path transform="matrix(1,0,0,-1,1540.4873,1247.9668)" d="M0 0C-8.714 9.188-17.427 18.375-26.141 27.562-28.359 30.584-30.17 34.117-34.631 34.324-35.586 36.519-34.706 38.363-33.521 40.15-33.011 47.238-28.818 52.198-23.926 56.753-16.579 56.614-9.254 56.351-2.396 53.228-.758 51.808 .588 50.255 .024 47.844-9.976 41.272-6.869 31.422-6.385 22.229-4.257 14.818-2.128 7.409 0 0" fill="#64bda0"/>
<path transform="matrix(1,0,0,-1,1265.6436,1349.3916)" d="M0 0C6.795 5.099 17.589 4.159 21.213 14.047 21.229 15.359 21.888 16.097 23.189 16.262 28.524 13.696 33.002 17.763 37.953 18.171 43.207 15.497 48.7 12.96 45.252 5.337 38.14 1.865 31.32-2.568 23.843-4.837 14.199-7.763 17.677-10.914 22.495-14.973 22.037-15.534 21.561-16.082 21.068-16.615 14.707-16.713 7.932-13.817 2.3-19.206-.419-20.512-1.887-18.621-3.439-16.955-6.521-10.445-9.011-4.056 0 0" fill="#2d997f"/>
<path transform="matrix(1,0,0,-1,1526.2959,1075.6348)" d="M0 0C.134 2.029 .268 4.06 .398 6.09 .941 7.864 1.487 9.639 2.033 11.41 9.903 25.661 14.222 40.814 13.665 57.207 19.719 57.431 25.206 56.031 29.652 51.64 24.795 32.615 19.937 13.592 15.079-5.432 9.998-3.772 4.685-2.758 0 0" fill="#8ed5bc"/>
<path transform="matrix(1,0,0,-1,1555.9483,1023.9951)" d="M0 0C-6.118-.411-11.601 1.005-15.986 5.568-16.593 6.158-17.116 6.813-17.56 7.533-17.048 14.973-9.879 16.439-6.016 20.838-1.796 25.641 4.23 29.542 5.359 36.686 6.672 38.495 7.545 40.395 6.573 42.669 15.32 40.033 24.209 37.762 31.981 32.66 21.319 21.773 10.66 10.887 0 0" fill="#5ac19e"/>
<path transform="matrix(1,0,0,-1,1392.3516,1268.1856)" d="M0 0C6.088-6.816-.002-13.599-.055-20.397-6.465-26.973-13.192-33.163-21.202-37.792-29.886-41.496-38.599-51.578-47.2-37.672-30.749-26.013-14.985-13.494 0 0" fill="#30a182"/>
<path transform="matrix(1,0,0,-1,1509.3252,1117.6377)" d="M0 0C.867-.575 1.734-1.148 2.602-1.723 9.68-6.161 7.401-13.448 8.113-19.823 3.209-33.726-3.625-46.469-14.206-56.959-18.213-53.643-22.802-50.854-24.562-45.508-13.334-31.98-7.306-15.646 0 0" fill="#71c3a8"/>
<path transform="matrix(1,0,0,-1,1562.5996,1094.3233)" d="M0 0C.72-10.161 10.526-4.993 15.075-8.864 17.745-11.137 23.893-5.904 24.741-12.597 25.323-17.19 22.304-19.975 18.111-21.449 16.072-22.166 13.276-22.415 14.005-25.551 14.978-29.729 17.849-26.771 19.936-27.159 31.155-29.241 22.848-35.753 22.46-40.521 11.608-35.571-.506-33.392-10.099-25.683-8.475-19.177-5.627-12.985-5.11-6.196-4.655-5.347-4.2-4.497-3.744-3.648-3.249-1.66-2.315-.122 0 0" fill="#41b490"/>
<path transform="matrix(1,0,0,-1,1265.6436,1349.3916)" d="M0 0C-5.538-4.761-1.09-11.548-3.439-16.955-21.55-21.354-39.743-25.197-58.506-25.259-63.69-17.214-58.99-13.094-52.347-9.745-44.793-8.792-37.24-7.839-29.687-6.885-24.123-13.034-20.268-8.663-16.358-4.7-15.364-3.942-14.234-3.523-12.986-3.426-8.304-3.623-5.243 2.325 0 0" fill="#008468"/>
<path transform="matrix(1,0,0,-1,1396.6367,1178.9004)" d="M0 0C3.017-4.048-1.237-8.314 .249-12.69 7.139-13.366 10.256-8.359 13.865-4.158 16.688-17.586 8.08-25.83 .161-34.387-2.297-36.07-4.679-35.756-7.014-34.125-7.922-33.199-8.508-32.088-8.837-30.837-6.665-21.128-17.703-14.875-14.641-4.409-23.253-11.374-23.253-11.374-26.064-3.526-23.456 4.651-20.908 12.876-11.229 15.56-5.912 11.509-5.264 4.089 0 0" fill="#1f9a7a"/>
<path transform="matrix(1,0,0,-1,1601.0918,967.2695)" d="M0 0C-6.883 3.268-6.883 3.268-17.208-5.095-15.723 1.589-15.723 1.589-7.979 12.646-23.67 2.277-41.26 6.417-58.079 4.675-58.934 6.479-59.786 8.281-60.641 10.085-61.873 14.644-58.055 16.979-56.198 20.18-43.396 11.767-31.068 16.405-18.76 21.573-14.256 22.661-9.789 23.925-5.118 24.168 .549 24.096 4.055 21.071 6.045 15.988 5.436 10.127 3.644 4.713 0 0" fill="#64c2a1"/>
<path transform="matrix(1,0,0,-1,1517.4385,1137.4609)" d="M0 0C-5.282 4.984-2.27 12.495-5.512 18.101 2.175 31.723 .714 48.351 8.854 61.825 15.491 64.473 20.812 63.474 23.938 56.394 22.914 54.857 21.892 53.321 20.869 51.785 19.665 47.247 17.175 43.012 14.116 39.976 5.729 31.652 20.626 39.731 17.148 35.381 18.854 29.261 15.757 25.28 11.194 21.951 6.371 15.19 6.021 6.149 0 0" fill="#80cdb2"/>
<path transform="matrix(1,0,0,-1,1213.2969,1359.1367)" d="M0 0C-3.787-4.482-6.87-9.245-6.159-15.514-16.306-19.336-27.188-16.32-37.51-18.928-42.906-20.292-46.891-19.198-47.264-12.109-47.583-6.009-45.308-2.797-39.438-2.387-26.301-1.469-13.147-.781 0 0" fill="#2f9a80"/>
<path transform="matrix(1,0,0,-1,1521.6846,1250.1611)" d="M0 0C1.059 .704 2.115 1.407 3.173 2.111 7.659-5.768 19.152-9.213 17.696-20.851 9.685-19.936 2.93-20.302 5.76-31.588 6.393-34.111 4.635-35.655 2.271-36.395-1.466-36.771-5.201-37.146-8.938-37.523-10.574-32.408-16.572-32.563-19.387-28.872-21.407-22.35-21.187-16.568-13.716-13.695-7.061-11.137-6.71-2.409 0 0" fill="#32a785"/>
<path transform="matrix(1,0,0,-1,1475.706,1104.4932)" d="M0 0C-4.224-1.032-8.447-2.063-12.67-3.095-25.277 1.19-35.732 8.195-42.185 20.259-44.267 30.087-36.141 26.24-32.067 27.853-27.336 28.376-22.734 27.084-18.045 26.871-16.206 26.786-14.413 26.497-12.705 25.767-9.179 23.756-7.523 20.478-6.56 16.724-6.098 12.085-7.421 9.072-13.988 9.923-7.545 7.937 .377 9.375 0 0" fill="#009773"/>
<path transform="matrix(1,0,0,-1,1397.2549,1217.1172)" d="M0 0C1.729 .069 4.557 .804 4.986 .091 6.509-2.435 5.22-4.808 2.863-6.404-1.266-9.203-7.907-8.447-9.26-15.219-8.333-17.195-6.494-16.44-4.779-16.546-.705-16.796 4.551-8.28 7.01-16.519 9.007-23.203 3.174-27.59-3.416-27.723-6.733-27.79-6.89-29.115-7.533-31.119-19.452-23.047-26.798-12.01-29.159 2.256-29.372 3.541-28.848 4.422-27.687 4.957-23.384 3.632-19.846 .377-15.164-.014-10.105-2.575-5.052 .18 0 0" fill="#1f9a7a"/>
<path transform="matrix(1,0,0,-1,1369.9229,1212.8086)" d="M0 0C-.608-.684-1.218-1.368-1.827-2.053-4.009 8.988-5.847 20.003 .649 30.382 2.066 29.034 2.152 23.607 5.153 27.347 7.779 30.62 9.944 33.304 14.119 33.939 15.733 27.311 12.615 19.737 20.517 14.469 23.891 12.22 21.273 6.298 18.949 2.398 13.621-6.206 6.433-.11 0 0" fill="#39a686"/>
<path transform="matrix(1,0,0,-1,1375.6152,1357.3779)" d="M0 0C5.03-6.332 15.765-12.124 .124-19.271-5.82-21.988 10.345-23.345 2.165-27.305-10.85-33.605-6.543-42.684-3.355-52.011-3.798-52.026-4.27-51.947-4.68-52.073-9.665-53.592-9.363-66.407-16.12-60.18-21.175-55.521-9.37-53.132-8.514-47.597-19.68-43.571-18.387-44.207-12.51-32.254-7.741-22.556-6.564-11.092-3.795-.411-2.53-.273-1.266-.137 0 0" fill="#229779"/>
<path transform="matrix(1,0,0,-1,1572.7949,1249.542)" d="M0 0C-16.36-1.195-17.331 13.436-22.762 22.953-24.323 25.689-23.187 31.38-21.239 34.395-17.743 39.808-15.939 32.462-12.946 32.203-10.289 31.974-7.631 31.758-4.972 31.536 .936 21.693 1.15 10.955 0 0" fill="#8acfb8"/>
<path transform="matrix(1,0,0,-1,1242.9912,1304.0889)" d="M0 0C2.541 7.806-6.604 12.494-5.242 20.182-4.123 26.498-2.578 24.263-.478 20.864 3.133 22.569 7.944 14.5 10.811 22.252 14.236 26.598 17.662 30.944 21.035 35.224 25.348 31.973 22.081 28.426 23.766 25.806 30.721 20.499 36.269 28.002 42.655 27.88 46.074 29.214 48.131 26.743 50.474 25.076 51.248 23.11 52.022 21.145 52.798 19.179 52.953 18.252 52.767 16.729 52.398 16.758 42.841 17.478 35.159 10.886 26.019 10.044 19.488 12.743 15.767 10.176 14.128 3.699 12.409-.265 8.788-.793 5.137-1.292 3.289-1.405 1.537-1.123 0 0" fill="#2b9e81"/>
<path transform="matrix(1,0,0,-1,1561.3076,987.3096)" d="M0 0C7.701-11.827-8.636-11.768-10.359-19.615-10.824-21.731-18.127-26.502-22.92-29.153-28.461-26.151-30.92-21.009-32.544-15.289-28.432-13.186-23.88-14.201-17.851-13.285-23.976-11.583-28.945-11.453-33.202-9.282-36.674-7.513-40.8-5.521-39.683-.599-38.725 3.619-35.165 3.959-31.271 3.807-28.751 3.708-26.25 5.318-23.54 4.958L-23.518 4.971C-19.668 4.099-20.87-.078-18.86-2.153-17.602-2.02-16.342-1.885-15.083-1.75-11.623 1.331-7.863 1.812-3.787-.444-2.524-.297-1.262-.148 0 0" fill="#72cbab"/>
<path transform="matrix(1,0,0,-1,1633.0938,1060.8379)" d="M0 0C3.668 13.139 16.832 15.067 25.843 21.902 27.574 23.215 29.264 24.586 30.971 25.93 31.811 25.817 32.624 25.603 33.41 25.288 37.126 20.588 46.967 18.476 45.012 12.59 43.252 7.296 34.1 6.667 27.744 5.097 23.538 4.059 18.731 5.35 15.15 1.879 10.082 1.405 5.404-2.225 0 0" fill="#3db98f"/>
<path transform="matrix(1,0,0,-1,1242.9912,1304.0889)" d="M0 0C1.273 .14 2.548 .281 3.82 .421 6.899 .064 10.005-.03 13.071-.507 27.156-.978 40.004-6.071 52.854-11.155 54.893-18.832 49.093-23.437 45.841-29.041 45.184-29.779 44.524-30.518 43.866-31.256 38.587-30.353 37.377-26.859 39.208-22.56 40.31-19.972 44.077-18.292 40.356-14.952 36.706-11.676 34.062-14.29 30.928-15.955 26.807-18.143 23.522-22.78 17.849-20.961 16.884-12.837 13.195-7.761 4.152-7.958 .651-8.034-1.757-6.143-1.604-2.153-1.034-1.462-.499-.744 0 0" fill="#008163"/>
<path transform="matrix(1,0,0,-1,1403.2354,1461.0615)" d="M0 0C3.872 5.753-2.664 8.436-3.753 12.726-7.079 13.518-8.909 14.923-6.032 18.267 2.404 27.808 11.985 33.613 25.123 27.821 21.804 13.983 11.73 6.244 0 0" fill="#3ea78a"/>
<path transform="matrix(1,0,0,-1,1617.502,1041.706)" d="M0 0C2.516-9.994 11.199 .149 16.745-6.463 4.458-9.96-3.255-19.532-13.291-25.704-19.511-29.529-23.125-21.695-27.956-19.2-19.201-11.979-11.928-2.602 0 0" fill="#67c8a5"/>
<path transform="matrix(1,0,0,-1,1339.7568,1329.042)" d="M0 0C-7.092-5.639-14.654-10.339-23.771-11.949-31.412-7.789-32.66-2.995-25.22 2.661-21.878 6.46-18.203 9.718-12.854 10.24-7.935 10.733-2.962 16.547 1.836 10.849 5.008 7.083 5.733 2.743 0 0" fill="#26977c"/>
<path transform="matrix(1,0,0,-1,1444.0039,1079.2822)" d="M0 0C-3.196-2.282-9.938 2.944-10.482-4.952-21.749 7.516-22.315 21.309-15.557 36.009-14.292 36.203-13.079 36.036-11.911 35.521-4.805 24.737 1.639 13.723 0 0" fill="#3ba786"/>
<path transform="matrix(1,0,0,-1,1529.1895,893.4844)" d="M0 0C.378-3.793 .755-7.586 1.132-11.379-1.894-11.91-4.955-12.28-7.93-13.009-12.785-14.197-17.183-15.178-15.133-7.452-13.447-1.094-17.704 .144-22.491 .839-18.083 6.939-14.528 14.086-5.59 14.639 1.837 11.883 .316 5.712 0 0" fill="#1da27d"/>
<path transform="matrix(1,0,0,-1,1516.5615,1191.2139)" d="M0 0C.691-7.781-6.31-11.119-9.594-16.604-18.291-8.947-20.854-19.983-26.219-22.29-27.788-22.964-26.654-28.111-31.159-25.018-35.284-22.187-31.336-21.296-30.681-19.233-29.258-14.758-28.885-9.948-28.084-5.276-19.344-.207-9.364-1.743 0 0" fill="#36a886"/>
<path transform="matrix(1,0,0,-1,1638.6592,1123.4317)" d="M0 0C2.393-4.169 4.784-8.337 7.177-12.506-1.319-18.215-10.823-17.7-20.362-16.969-21.126-13.562-21.278-10.151-20.439-6.718-19.169-2.895-9.529-2.105-16.733 5.107-18.644 7.019-16.687 12.008-13.161 14.222-11.729 14.153-10.906 13.438-10.777 11.984-7.186 7.99-3.593 3.995 0 0" fill="#5fc09f"/>
<path transform="matrix(1,0,0,-1,1339.7568,1329.042)" d="M0 0C6.833 17.368-7.979 7.567-12.854 10.24-6.771 14.555-.687 18.87 5.395 23.185 14.023 15.067 22.724 22.491 31.393 23.064 21.942 13.996 11.411 6.398 0 0" fill="#53b094"/>
<path transform="matrix(1,0,0,-1,1430.4102,1044.7451)" d="M0 0C-.675 .464-1.33 .954-1.963 1.472-3.144 6.038 .366 8.543 2.51 11.648 9.368 8.251 11.828 13.625 14.874 17.843 16.94 20.704 18.785 23.771 21.155 26.354 23.575 28.993 26.184 29.029 29.171 26.353 34.329 21.732 28.38 21.749 26.76 20.28 23.065 16.931 21.412 13.298 23.83 8.529 23.97 7.29 23.723 6.134 23.097 5.053 21.106 2.608 18.361 1.268 15.614-.079 10.396-3.147 5.193-2.361 0 0" fill="#6dc3a7"/>
<path transform="matrix(1,0,0,-1,1537.7676,982.3516)" d="M0 0C-3.758-4.33-14.264-.119-13.569-7.393-12.895-14.46-3.174-12.161 2.327-14.312 4.652-15.22 9.31-11.553 10.114-16.865 11.012-22.8 5.532-20.968 2.561-21.615-1.33-22.463-5.449-23.169-9.004-20.247-15.54-13.33-21.84-6.25-24.987 2.998-20.604 9.398-15.341 6.932-10.08 4.477-8.598-1.244-2.601 3.202 0 0" fill="#5ec19f"/>
<path transform="matrix(1,0,0,-1,1295.8457,1315.2442)" d="M0 0C-1.42-.981-3.639-3.122-4.144-2.773-15.265 4.884-28.483 5.543-40.969 8.594-38.41 17.277-30.28 13.152-24.986 15.589-21.668 15.979-18.382 16.607-15.039 16.869-6.778 17.461-1.392 13.719 1.344 5.995 .896 3.997 .448 1.998 0 0" fill="#007757"/>
<path transform="matrix(1,0,0,-1,1618.5635,1131.583)" d="M0 0C3.776-3.057 2.269-5.953-.267-8.817-10.344-7.687-20.595-7.534-30.157-3.506-24.441 1.192-28.485 9.9-22.727 14.582-11.979 14.664-9.397 2.021 0 0" fill="#45b792"/>
<path transform="matrix(1,0,0,-1,1270.2471,1291.4102)" d="M0 0C2.105-1.319 3.67-1.645 5.242 1.117 8.929 7.594 12.907 13.232 20.025 3.907 21.041 2.578 24.023 4.782 25.542 6.5 27.095-.294 30.747-6.953 26.873-14.099 20.708-14.812 19.134-5.329 12.292-7.543 7.586-7.87 2.887-8.336-1.841-7.826-4.315-7.391-6.839-7.022-7.495-3.945-6.493 .215-3.311 .229 0 0" fill="#45aa8d"/>
<path transform="matrix(1,0,0,-1,1607.1367,951.2813)" d="M0 0C-3.781 2.906-7.597 5.745-12.572 6.251-12.875 6.771-13.179 7.289-13.493 7.805-15.633 13.977-15.229 19.712-10.57 24.714-9.613 25.498-8.51 25.919-7.271 25.983-4.608 25.208-2.076 25.506 .324 26.902 4.572 17.882 .694 8.96 0 0" fill="#87d1b7"/>
<path transform="matrix(1,0,0,-1,1557.4893,1100.5195)" d="M0 0C4.819-8.155 2.787-14.556-4.989-19.486L-13.585-13.328C-19.335-8.804-19.335-8.804-11.435-1.105-7.733 .404-3.92 .762 0 0" fill="#53c19c"/>
<path transform="matrix(1,0,0,-1,1336.044,1442.2813)" d="M0 0C.598 7.328 7.704 7.53 11.924 10.892 13.506 8.522 15.088 6.153 16.671 3.786 12.857-1.816 20.656-7.115 17.1-12.711 11.19-8.756 4.313-6.103 0 0" fill="#008367"/>
<path transform="matrix(1,0,0,-1,1523.956,1286.5557)" d="M0 0C4.891 6.727-4.58 8.367-4.921 15.33 2.852 6.374 6.893 31.227 15.425 15.545 12.158 11.45 10.151 6.994 11.411 1.597 7.765-.051 3.947-.489 0 0" fill="#4eb191"/>
<path transform="matrix(1,0,0,-1,1529.1895,893.4844)" d="M0 0C-1.863 4.879-3.727 9.759-5.59 14.639-3.344 17.921-.15 18.493 3.48 17.814 9.65 17.125 12.051 12.679 13.976 7.491 9.208 4.926 3.595 4.308 0 0" fill="#67bfa2"/>
<path transform="matrix(1,0,0,-1,1267.9434,1368.5977)" d="M0 0C5.509 9.732 7.519 10.01 18.769 2.591 18.745-12.14 9.226-.746 4.519-2.589 3.013-1.727 1.506-.863 0 0" fill="#007152"/>
<path transform="matrix(1,0,0,-1,1445.6309,1173.0674)" d="M0 0C-5.908-.024-9.372-12.274-14.503-5.803-18.61-.623-11.99 6.234-6.221 10.237-3.464 7.241-.363 4.452 0 0" fill="#36a484"/>
<path transform="matrix(1,0,0,-1,1396.6367,1178.9004)" d="M0 0C-9.934 .719-10.035 8.533-11.229 15.56-10.188 19.097-6.82 19.058-4.185 20.144 1.428 14.305-.31 6.939 0 0" fill="#008c6a"/>
<path transform="matrix(1,0,0,-1,1546.0547,1101.625)" d="M0 0C1.887-2.007 3.494-3.952-.701-5.158-5.634-6.578-5.396-9.103-2.151-12.223-7.241-12.776-12.331-13.33-17.422-13.884-16.003-9.227-14.583-4.566-13.163 .092-13.211 1.143-12.701 1.786-11.709 2.076-8.366-1.774-3.856 .953 0 0" fill="#3bb18a"/>
<path transform="matrix(1,0,0,-1,1534.3457,1099.5488)" d="M0 0C-.472-.672-.957-1.334-1.456-1.985-3.921-4.108-6.387-6.231-10.259-9.565-10.655 2.77-.807 6.811 3.963 13.874 4.429 8.738 1.94 4.447 0 0" fill="#94d6bf"/>
<path transform="matrix(1,0,0,-1,1238.6279,1266.4629)" d="M0 0C.228 4.562-3.813 5.957-6.307 8.5-2.875 10.419 .557 12.337 3.989 14.255 6.406 9.325 6.88 4.144 5.986-1.214 3.151-4.947 1.386-3.41 0 0" fill="#007f5c"/>
<path transform="matrix(1,0,0,-1,1527.6875,977.875)" d="M0 0C-4.933-.866-10.135 .996-14.907-1.479-17.308 .231-20.535 1.304-20.085 5.218-13.109 4.56-4.849 8.844 0 0" fill="#33b088"/>
<path transform="matrix(1,0,0,-1,1250.9356,1354.748)" d="M0 0C-1.484-6.021-5.402-9.025-11.516-8.55-16.087-8.193-15.686-4.8-14.979-1.528L-9.38 .458C-6.306-.764-2.96 3.571 0 0" fill="#007152"/>
<path transform="matrix(1,0,0,-1,1212.7363,1304.0293)" d="M0 0C11.832-2.822 8.829-11.74 8.102-19.722 2.415-14.374 1.632-7.014 0 0" fill="#44a187"/>
<path transform="matrix(1,0,0,-1,1568.8994,873.5723)" d="M0 0C-2.305-5.022 .509-14.117-10.021-12.595-5.968-8.758-8.724-2.907-5.912 1.297-3.649 2.195-1.772 1.337 0 0" fill="#70c4a8"/>
<path transform="matrix(1,0,0,-1,1314.5371,1326.3809)" d="M0 0C-3.062-5.222-2.902-10.123 1.448-14.61 .4-16.71-1.001-18.222-3.642-17.674-3.731-12.063-10.022-9.979-10.94-4.84-7.77-2.15-4.154-.467 0 0" fill="#53ac93"/>
<path transform="matrix(1,0,0,-1,1282.4776,1297.6494)" d="M0 0C8.344 3.83 9.012-6.637 14.643-7.859 14.665-9.106 14.688-10.353 14.712-11.6 9.349-7.463 4.604-1.843-3.403-4.053-3.47-1.694-2.309-.364 0 0" fill="#008163"/>
<path transform="matrix(1,0,0,-1,1250.9356,1354.748)" d="M0 0C-3.123 .219-6.397-2.652-9.38 .458-9.054 1.292-8.628 2.073-8.104 2.8-4.522 5.97-.863 10.023 1.722 1.931 1.111 1.319 .537 .677 0 0" fill="#005034"/>
<path transform="matrix(1,0,0,-1,1384.3096,1463.626)" d="M0 0C3.123 3.439 6.248 5.992 9.4 .03 6.275-2.746 3.139-1.745 0 0" fill="#51aa8f"/>
<path transform="matrix(1,0,0,-1,1474.0205,1219.46)" d="M0 0C3.601 .721 2.31-3.173 3.612-3.95 8.701-6.989-1.566-13.111 5.39-14.23 10.142-14.994 14.78-11.461 18.107-7.415 21.53-8.728 20.792-11.591 20.102-13.931 18.913-17.956 18.607-19.75 24.253-19.686 30.262-19.618 34.672-23.536 35.868-30.014 33.87-40.34 28.489-47.11 17.228-47.661L15.045-45.997C14.262-40.824 19.325-38.622 21.31-33.41 11.44-34.13 2.668-32.115-3.922-24.639-6.455-15.805-13.55-6.254 0 0" fill="#2ea582"/>
<path transform="matrix(1,0,0,-1,1432.4053,1207.1641)" d="M0 0C-4.547 8.461 5.923 12.081 4.944 19.806 12.236 14.907 17.629 10.262 18.735 2.372 9.891-8.917 1.046-20.206-7.798-31.496-9.752-33.697-11.294-36.487-14.837-36.42-14.836-36.422-14.801-35.999-14.801-35.999-15.096-29.18-10.116-25.172-6.685-20.226-2.529-14.234 3.844-8.728 0 0" fill="#008f6d"/>
<path transform="matrix(1,0,0,-1,1491.248,1267.1211)" d="M0 0C7.251 4.181 13.559 9.29 16.989 17.237 19.447 20.213 22.346 21.82 26.272 20.214 27.661 19.13 29.049 18.046 30.437 16.96 27.235 9.273 24.738 .988 14.937-1.018 7.669-2.506 18.392-10.44 11.049-11.915 10.268-11.482 9.508-11.018 8.77-10.515 6.435-10.554 4.983-9.504 4.607-7.132L4.604-7.139C5.066-3.472 2.139-1.989 0 0" fill="#199c7a"/>
<path transform="matrix(1,0,0,-1,1471.2783,1244.6465)" d="M0 0C9.036-4.016 18.179-7.326 28.13-2.833 29.784-13 21.699-15.578 17.787-20.812 16.411-19.694 15.036-18.577 13.661-17.461 11.718-9.205 2.875-7.643-1.543-1.787-1.633-.669-1.118-.073 0 0" fill="#199c7a"/>
<path transform="matrix(1,0,0,-1,1495.8565,1274.252)" d="M0 0C1.387-1.128 2.774-2.256 4.162-3.384 1.353-3.495 .012-8.915-2.707-6.403-4.688-4.573-1.282-2.078 0 0" fill="#59b59a"/>
<path transform="matrix(1,0,0,-1,1633.0938,1060.8379)" d="M0 0C4.91 1.758 9.539 5.793 15.15 1.877 9.117-4.479 8.504-13.43 4.355-20.689-2.641-25.39-8.449-31.039-10.66-39.553-16.162-46.731-21.292-52.38-28.41-40.519-31.08-36.071-33.554-43.727-36.96-42.771-41.811-35.607-38.329-30.838-32.692-26.138-21.971-17.197-8.761-11.373 0 0" fill="#7bceb0"/>
<path transform="matrix(1,0,0,-1,1620.4268,1098.831)" d="M0 0C1.232 10.139 7.585 15.239 17.023 17.304 13.152 7.548 6.739-1.394 7.452-12.615 6.682-12.034 5.909-11.454 5.137-10.872-2.547-10.069 .219-4.329 0 0" fill="#54be9a"/>
<path transform="matrix(1,0,0,-1,1640.8379,1108.9922)" d="M0 0C-1.038-.25-2.69-1.074-4.22-.887-5.59-.719-6.048 1.183-4.895 1.992-3.651 2.864-1.822 3.34-.296 3.241 1.045 3.153 1.575 1.834 0 0" fill="#6cc7a7"/>
<path transform="matrix(1,0,0,-1,1397.2031,1442.7949)" d="M0 0C.762-1.847 1.523-3.692 2.282-5.54-1.328-9.438-7.516-10.56-8.34-5.767-9.97 3.702-17.045 10.181-19.065 18.915-19.649 21.437-16.819 19.576-15.507 19.192-12.611 15.708-9.719 12.224-6.825 8.738-6.865 4.018-2.59 2.667 0 0" fill="#00805e"/>
<path transform="matrix(1,0,0,-1,1620.4268,1098.831)" d="M0 0C1.976-3.499 1.234-8.282 5.137-10.872 5.079-15.638 .07-21.393 7.415-24.687 10.759-26.187 13.473-28.6 11.206-31.433 8.375-34.969 7.963-29.118 5.708-28.675 1.952-27.936 1.174-32.378-1.863-32.752-2.917-36.711-4.29-37.999-7.783-34.339-13.145-28.72-18.965-23.538-24.591-18.17-24.491-13.706-24.392-9.242-24.293-4.777-18.273 5.271-19.149 4.572-11.985-4.414-6.807-10.908-3.364-3.475 0 0" fill="#6cc7a7"/>
<path transform="matrix(1,0,0,-1,1352.7149,1438.4951)" d="M0 0C4.997 .502 5.356 7.353 10.126 7.723 16.371 8.208 22.168 9.189 26.96 2.014 33.195-7.323 24.191-9.432 22-14.826 20.455-14.238 18.957-13.872 18.978-13.646 20.335 1.228 14.111 4.351 1.446-2.125 1.351-2.174 .498-.741-.001 0Z" fill="#2d9d80"/>
<path transform="matrix(1,0,0,-1,1337.7774,1409.6475)" d="M0 0C-7.335 11.797-1.652 18.776 8.87 23.968 16.631 11.082 14.201 4.519 0 0" fill="#007a5b"/>
<path transform="matrix(1,0,0,-1,1471.2783,1244.6465)" d="M0 0C-.495-.614-1.011-1.212-1.544-1.789-3.47-.661-5.308 .667-7.337 1.56-22.91 8.422-24.123 12.96-13.701 25.962-12.304 27.706-10.808 29.371-9.356 31.07-7.587 24.451 1.677 33.251 2.742 25.187-7.483 17.805 2.336 8.24 0 0" fill="#00916e"/>
<path transform="matrix(1,0,0,-1,1432.4053,1207.1641)" d="M0 0C2.916 1.187 6.079 2.604 8.054-1.124 9.476-3.809 6.57-5.34 5.764-7.303 1.117-18.601-9.521-25.371-14.801-36.001-13.265-22.603-12.363-8.945 0 0" fill="#008360"/>
<path transform="matrix(1,0,0,-1,1397.2549,1217.1172)" d="M0 0C-4.473-5.791-9.479-6.73-15.15-1.675-14.962 4.167-9.673 3.313-6.345 5.034-4.382 4.633-2.419 4.231-.457 3.83-.305 2.554-.153 1.276 0 0" fill="#008e6c"/>
<path transform="matrix(1,0,0,-1,1417.1133,1199.1846)" d="M0 0C2.387 7.21 4.825 9.072 9.108 8.676 9.006 3.16 4.581 3.755 0 0" fill="#007e59"/>
<path transform="matrix(1,0,0,-1,1321.5293,1416.2402)" d="M0 0C-1.3 2.199-1.672 4.327-.453 6.365 1.016 8.822 2.81 9.01 4.348 6.399 5.2 4.95 8.542 4.095 5.45 1.511 3.683 .032 2.2-1.255 0 0" fill="#006c4c"/>
<path transform="matrix(1,0,0,-1,1534.1026,1225.7383)" d="M0 0C-7.74 6.065-3.965 21.147 6.41 25.616-.375 18.24 4.813 7.868 0 0" fill="#4ab291"/>
<path transform="matrix(1,0,0,-1,1517.5205,1246.9072)" d="M0 0C-3.095-.992-6.189-1.983-9.283-2.976-13.019 5.617-19.317 7.265-27.399 3.361-29.788 9.572-24.254 14.366-25.393 20.032-21.882 23.944-18.14 29.291-12.376 25.273-3.892 19.359 4.193 12.469 0 0" fill="#3ead8b"/>
<path transform="matrix(1,0,0,-1,1479.4746,1200.1211)" d="M0 0C1.164 .378 2.329 .756 3.493 1.135 4.769-2.389 3.04-6.401 .429-6.281-2.402-6.152 1.738-2.145 0 0" fill="#36a886"/>
<path transform="matrix(1,0,0,-1,1505.8565,1213.6426)" d="M0 0C5.044 .526 8.007-1.562 8.49-6.763 3.919-6.693 3.567-1.328 0 0" fill="#36a886"/>
<path transform="matrix(1,0,0,-1,1599.8652,925.2979)" d="M0 0C-.557-.702-1.112-1.404-1.669-2.105-5.718-4.833-9.734-7.488-14.947-7.561-18.034-7.604-21.629-7.726-22.766-11.397-24.265-16.241-18.389-16.258-17.019-19.326-16.882-19.919-16.751-20.512-16.619-21.105-28.264-32.937-46-33.255-54.971-21.793-56.366-18.298-58.241-15.158-61.468-13.02-62.391-8.624-71.647-6.589-65.13-.087-60.33 1.231-56.984 17.584-50.483 1.33-46.675 3.181-42.866 5.033-39.058 6.885-38.682 11.847-35.644 11.788-32.021 10.641-25.739 5.964-19.458 1.118-12.445 9.604-11.322 10.187-10.129 10.448-8.871 10.412-2.645 9.727-2.409 3.937 0 0" fill="#84d0b5"/>
<path transform="matrix(1,0,0,-1,1534.7354,925.3848)" d="M0 0C-2.213-5.282 3.794-8.238 3.661-12.933-2.152-10.366-8.454-9.018-8.742-.186-8.933 5.635-5.424 4.565-2.522 5.479-1.682 3.653-.841 1.826 0 0" fill="#4bb794"/>
<path transform="matrix(1,0,0,-1,1525.1719,968.7314)" d="M0 0C-4.001 5.604-7.601 7.165-12.021 7.721-10.067 12.192-6.856 15.688-3.153 14.174 .811 12.554-.635 7.276 0 0" fill="#31ad86"/>
<path transform="matrix(1,0,0,-1,1557.5205,987.7539)" d="M0 0C-3.765-.436-7.531-.87-11.297-1.305-8.345 6.187-4.586 6.671 0 0" fill="#5ac19e"/>
<path transform="matrix(1,0,0,-1,1542.4473,989.4629)" d="M0 0C-5.188-.003-2.281 5.289-4.657 7.124 1.868 8.002 .189 3.514 0 0" fill="#5ac19e"/>
<path transform="matrix(1,0,0,-1,1667.04,1104.7959)" d="M0 0C1.966 6.16 6.169 9.477 12.639 9.185 13.535 9.145 15.387 5.921 14.981 5.218 11.58-.677 5.868-.722-.007 .014Z" fill="#95dac1"/>
<path transform="matrix(1,0,0,-1,1590.9942,914.8857)" d="M0 0C-.565-.685-1.123-1.375-1.674-2.071-6.445-3.699-11.283-10.071-15.706-.969-16.773 1.229-19.931-3.283-22.646-2.64-25.438-.563-27.951-.869-30.187-3.529-34.205 4.365-24.33 11.599-29.091 19.526-25.745 23.949-19.078 22.616-16.498 28.309-10.194 18.881-19.381 17.801-24.684 12.167-12.378 13.307-6.947 5.415 0 0" fill="#70c4a8"/>
<path transform="matrix(1,0,0,-1,1471.5381,1070.5664)" d="M0 0C.094 10.208 8.528 10.597 15.152 14.21 20.63 17.197 8.462 29.166 21.346 31.271 39.974 23.451 21.021 12.836 23.189 3.706 23.515 2.337 20.824 .252 19.528-1.502 19.528-1.501 19.457-1.512 19.457-1.512 14.478-1.707 13.871-6.808 10.84-9.203 9.029-9.814 7.278-9.803 5.62-8.737 3.833-6.595 3.578-4.021 4.097-1.495 6.184 8.672-.374-5.201 0 0" fill="#31ab85"/>
<path transform="matrix(1,0,0,-1,1482.252,1078.8516)" d="M0 0C.638 5.197 2.759 8.479 8.743 6.773 8.067-6.116 2.509-16.703-6.546-25.642-10.89-17.646-18.811-19.096-25.845-18.57-27.621-8.034-13.218-18.687-14.233-9.337-13.662-9.176-13.091-9.014-12.522-8.835-4.845-10.86-2.43-5.419 0 0" fill="#20a17d"/>
<path transform="matrix(1,0,0,-1,1500.0234,1099.7002)" d="M0 0C1.875-.775 5.303-.712 4.638-3.426 3.237-9.148-2.5-8.11-6.352-10.663-9.093-3.017-1.68-3.532 .001-.001Z" fill="#48b592"/>
<path transform="matrix(1,0,0,-1,1461.373,1079.581)" d="M0 0C-1.287-.105-2.576-.212-3.864-.318-16.797 11.757-17.135 14.3-5.966 25.159-.029 30.932-2.293 37.371-3.366 43.867 1.238 45.456 4.41 48.742 7.05 52.659 11.792 48.17 13.86 42.731 11.727 36.443 9.389 29.551 17.555 19.573 4.848 15.293 2.077 14.359 5.593 9.232 8.469 7.01 8.769 .901 4.965-.251 0 0" fill="#64bfa1"/>
<path transform="matrix(1,0,0,-1,1461.373,1079.581)" d="M0 0C3.23 1.845 6.715 3.385 8.471 7.009 8.469 7.01 9.355 7.981 9.355 7.981 9.355 7.981 10.169 9.016 10.167 9.016 13.354 11.701 14.345 16.964 20.696 17.381 18.25 11.607 15.342 6.301 17.106 .282 17.092-6.696 12.153-7.925 6.737-8.597L6.646-8.607C6.646-8.607 6.646-8.607 6.646-8.607 4.43-5.738 2.216-2.869 0 0" fill="#20a17d"/>
<path transform="matrix(1,0,0,-1,1238.6279,1266.4629)" d="M0 0C1.798-1.373 3.711-2.183 5.984-1.214 9.265-5.794 8.51-12.992 15.174-15.374 17.544-16.454 20.248-13.281 24.195-17.871 16.422-19.23 10.515-26.276 3.886-16.762 8.652-9.769-3.754-6.758 0 0" fill="#008b6c"/>
<path transform="matrix(1,0,0,-1,1285.6465,1276.209)" d="M0 0C-4.116-2.488-8.235-4.97-12.347-7.466-19.683-11.921-19.307-7.026-18.89-2.075-12.619-1.146-6.679 2.791 0 0" fill="#009374"/>
<path transform="matrix(1,0,0,-1,1458.0068,1035.7139)" d="M0 0C7.947-9.966 6.587-18.639-4.694-23.468-9.81-25.657-9.191-27.925-7.408-31.396-5.196-35.706-2.81-39.927-.498-44.185-5-43.981-9.5-43.778-14.002-43.571-18.534-32.057-23.065-20.545-27.596-9.031-22.57-8.449-17.545-7.867-12.519-7.285-6.445-11.564-7.179-5.197-5.411-2.742-4.863-1.995-4.314-1.249-3.768-.502-2.512-.334-1.256-.167 0 0" fill="#53b495"/>
<path transform="matrix(1,0,0,-1,1390.9102,1212.083)" d="M0 0C-2.935-2.237-5.87-4.475-8.806-6.71-14.716-8.476-19.132-7.206-20.986-.724-15.267 4.78-7.818-3.371-2.039 1.673-1.368 1.104-.688 .546 0 0" fill="#35a585"/>
<path transform="matrix(1,0,0,-1,1594.5645,945.0303)" d="M0 0C-3.652-1.452-7.102-4.579-11.318-1.373L-11.32-1.354C-11.57 2.729-11.552 6.919-6.234 7.515-.785 8.124 .199 4.396 .001-.009Z" fill="#84d0b5"/>
<path transform="matrix(1,0,0,-1,1263.081,1296.3096)" d="M0 0C1.989-.312 3.979-.623 5.968-.934 9.386-1.513 11.535-2.711 8.623-6.378 3.162-8.329-3.221-6.368-8.204-10.341-10.893-9.348-13.581-8.353-16.269-7.358-13.202-6.353-10.137-5.348-7.07-4.342-6.14-.571-3.383 .224 0 0" fill="#00896b"/>
<path transform="matrix(1,0,0,-1,1263.081,1296.3096)" d="M0 0C-2.356-1.448-4.713-2.896-7.069-4.343-8.275 5.424-3.304 8.651 7.166 4.899 4.777 3.267 2.389 1.633 0 0" fill="#45aa8e"/>
<path transform="matrix(1,0,0,-1,1452.5957,1038.456)" d="M0 0C2.42-4.762 1.445-9.4-3.204-11.173-5.411-12.015-10.673-9.718-7.107-4.544Z" fill="#38ab86"/>
<path transform="matrix(1,0,0,-1,1271.7041,1302.6875)" d="M0 0C.308 2.396-1.013 3.999-2.656 5.444 1.82 5.309 6.297 5.175 10.773 5.039 9.64 3.687 8.505 2.334 7.37 .983 4.913 .656 2.456 .328 0 0" fill="#2b9e81"/>
<path transform="matrix(1,0,0,-1,1594.5654,945.0391)" d="M0 0C-5.131 10.97-8.21 4.676-11.321-1.346-13.756 3.081-23.39-2.019-22.297 6.194-21.253 14.041-15.206 15.834-7.851 15.5-4.063 15.328-.198 16.869 3.631 17.636-1.711 12.607 2.8 5.551 0 0" fill="#7bcaaf"/>
<path transform="matrix(1,0,0,-1,1568.3486,917.5254)" d="M0 0C5.192 6.274 5.053 6.155 10.016 .329 13.542-3.813 17.274 1.639 20.972 .568 14.218-8.354 7.281-10.536 0 0" fill="#7ccaaf"/>
<path transform="matrix(1,0,0,-1,1567.2627,924.9053)" d="M0 0C1.671-1.002 2.435-2.257 1.285-3.253 .618-3.831-1.062-3.582-2.124-3.223-2.671-3.038-2.86-1.797-3.212-1.033-2.037-.655-.862-.277 0 0" fill="#7ccaaf"/>
<path transform="matrix(1,0,0,-1,1468.1104,1088.1777)" d="M0 0C3.456 2.959 6.913 5.919 10.369 8.879 11.627 9.028 12.884 9.177 14.142 9.326 14.742-3.62 11.591-5.699 0 0" fill="#41af8c"/>
<path transform="matrix(1,0,0,-1,545.7173,411.1416)" d="M0 0C4.435 4.017 6.067 12.142 14.689 10.018 23.301 13.613 27.974 20.933 32.31 28.58 34.083 31.973 36.176 35.207 37.731 38.721 39.217 42.955 43.144 45.87 44.396 50.096 47.218 59.624 41.852 65.287 33.656 67.302 23.032 69.912 25.449 60.758 25.487 55.789 .175 69.931 9.653 93.482 9.006 114.418 8.593 116.847 7.679 119.075 6.434 121.184 5.586 122.6 4.595 123.905 3.501 125.138 .439 127.693-2.354 131.259-7.048 128.197-11.147 115.976-17.771 105.115-28.926 98.637-37.309 93.768-38.907 84.603-45.04 78.319-52.328 70.852-57.625 68.058-64.682 77.54-62.261 82.448-57.696 86.355-52.951 84.677-40.506 80.276-37.563 86.899-36.104 96.817-35.791 98.953-34.037 100.639-32.879 102.503-29.847 107.383-18.506 112.008-26.118 117.201-32.898 121.827-43.925 126.618-53.842 120.183-57.464 117.831-60.023 113.905-64.824 113.303-71.411 112.478-79.408 117.455-84.135 108.772-87.447 102.688-84.285 95.929-85.008 89.673-93.422 88.24-100.558 95.179-108.021 90.286-108.069 75.789-103.234 64.347-90.734 55.433-67.844 39.108-43.837 27.598-14.823 30.407-11.044 30.772-7.205 30.525 .21 30.596-10.179 18.573-19.77 10.829-25.164-.067-16.765-4.394-8.389 .418 0 0" fill="#59b59a"/>
<path transform="matrix(1,0,0,-1,437.6958,320.85548)" d="M0 0C2.985-1.038 6.013-1.966 8.946-3.133 23.818-9.048 34.827-11.588 25.899 11.419 23.243 18.266 28.69 23.126 36.562 19.649 44.395 16.187 49.108 17.305 54.365 24.904 62.561 36.754 72.131 19.498 81.806 25.137 76.226 16.879 63.614 13.676 67.543 .345 68.291-2.193 66.971-6.399 60.688-1.866 52.677 3.913 44.471-1.65 39.331-9.645 37.161-13.021 36.769-16.816 39.408-20.373 47.155-9.645 48.893-36.306 57.506-23.132 69.669-4.529 88.025 8.604 101.851 25.813 105.728 30.641 103.149 33.802 100.528 37.405 100.528 37.405 99.017 37.866 99.048 37.887 95.917 39.19 98.741 41.804 97.835 43.63 97.572 45.065 97.144 46.407 96.565 47.729 93.357 52.436 92.402 59.846 83.966 58.249 82.584 50.622 78.378 51.941 72.296 53.192 50.836 57.606 29.533 58.367 13.176 40.065 3.135 28.831-7.9 17.377 0 0" fill="#67bca2"/>
<path transform="matrix(1,0,0,-1,832.7266,72.9126)" d="M0 0C-6.501 18.669-19.034 30.251-38.957 33.146-46.713 33.555-50.245 27.365-55.096 23.046-63.646 15.437-71.227 6.396-82.88 3.098-84.61 2.953-86.275 2.545-87.9 1.955-99.94-8.011-117.528-14.769-110.138-36.118-106.925-42.897-101.036-46.623-94.605-49.748-79.399-54.251-67.799-44.292-54.812-39.85-45.828-35.292-35.477-33.421-27.797-26.283-23.481-22.28-22.518-16.884-21.377-11.417-17.273 8.253-17.187 8.235 0 0" fill="#95dac1"/>
<path transform="matrix(1,0,0,-1,429.2437,407.4707)" d="M0 0C-3.497 37.837-59.272 56.078-87.158 40.752-85.546 25.063-97.454 13.776-100.568-.399-98.16-4.893-95.183-8.581-89.403-8.276-83.831 .23-70.916-2.078-66.034 7.43-65.606 4.951-65.65 2.397-66.496-.1-67.833-4.047-72.11-8.017-67.75-12.132-63.771-15.888-59.38-12.752-55.38-11.325-49.084-9.079-42.027-10.822-35.648-7.047-35.584-12.009-41.116-17.218-35.143-21.107-30.485-24.14-26.617-20.912-23.469-17.82-16.388-10.865-6.44-7.746 0 0" fill="#54b296"/>
<path transform="matrix(1,0,0,-1,825.1309,133.36865)" d="M0 0C13.076 17.648 13.188 37.188 8.386 57.445-2.694 53.981-4.526 42.356-11.14 34.94-15.836 29.673-19.086 23.179-26.453 20.917-40.033 12.381-46.431-2.248-56-14.168-61.108-20.529-66.046-25.951-75.144-23.783-81.736-22.892-88.327-21.935-94.87-24.063-101.666-27.963-112.253-25.398-115.209-35.896-115.108-37.272-115.007-38.648-114.906-40.024-111.824-41.112-106.831-40.359-105.763-42.876-98.962-58.904-91.373-53.772-84.22-43.941-72.19-48.735-86.074-73.481-63.537-68.479-59.453-66.526-56.771-62.208-51.901-61.586-42.497-52.553-33.093-43.521-23.688-34.488-34.19-15.186-15.131-5.82-9.329 7.952-6.603 4.952-9.336-4.589 0 0" fill="#53c19c"/>
<path transform="matrix(1,0,0,-1,307.7622,397.71339)" d="M0 0C-1.042-3.917-2.084-7.834-3.126-11.751-2.109-15.621-2.259-19.487-3.164-23.35-5.685-37.849 2.031-49.511 7.487-61.799 14.159-63.96 20.391-71.117 27.911-63.606 27.799-60.979 26.985-58.585 28.4-55.727 35.667-41.037 34.133-37.879 18.287-34.184 23.442-28.508 27.784-32.829 30.874-35.6 35.424-39.68 34.356-45.864 32.778-50.943 31.583-54.796 26.303-57.077 27.798-62.345 28.469-66.765 32.045-68.775 35.09-71.238 43.935-76.245 51.464-84.487 63.074-82.782 70.315-71.32 79.498-64.875 93.557-71.07 96.726-70.76 99.069-69.122 100.847-66.61 107.667-57.547 119.548-67.214 126.785-59.653 131.388-52.82 128.296-45.756 127.41-38.758 127.284-34.462 124.001-31.937 121.2-34.3 109.85-43.875 93.065-38.853 82.303-49.461 80.015-51.716 77.348-51.99 76.083-48.357 71.601-35.471 66.222-43.401 60.97-47.608 59.627-49.357 60.265-46.223 60.456-46.154 65.184-44.448 67.478-41.295 65.212-36.123 60.712-30.371 55.916-25.065 47.855-24.797 45.288-25.249 45.82-29.643 45.276-29.076 38.955-22.491 31.051-18.295 22.742-15.631 14.944-13.13 18.108-6.631 15.926-2.139 11.051 1.846 6.729 10.003 0 0" fill="#038d6f"/>
<path transform="matrix(1,0,0,-1,553.2173,296.9121)" d="M0 0C-2.116-12.456-7.135-25.339-5.387-37.226-4.094-46.013 5.529-53.967 12.498-61.284 14.541-63.429 15.881-69.745 20.724-67.211 25.518-64.704 24.821-60.009 22.422-55.668 21.458-53.925 19.27-52.407 20.99-49.964 35.058-53.094 37.856-58.271 29.891-67.789 27.614-70.509 27.124-71.88 28.928-74.436 46.87-71.731 56.32-55.802 70.758-47.646 74.632-43.58 80.358-41.414 82.949-35.992 91.5-19.148 109.787-12.957 122.089-.218 119.868 6.79 115.212 11.107 107.963 12.557 102.524 8.721 97.084 4.885 91.645 1.049 86.35-1.473 81.254-4.448 75.517-5.961 68.214-11.715 61.647-18.207 56.03-25.624 37.592-41.216 37.592-41.216 21.024-14.352 14.436-8.933 12.865 3.835 0 0" fill="#60b99d"/>
<path transform="matrix(1,0,0,-1,636.1665,332.9043)" d="M0 0C-4.502-.995-8.949-2.112-12.237-5.709-11.17-10.135-7.654-11.895-3.848-11.595 2.858-11.068-3.691-16.538-.125-18.683 4.907-21.71-1.547-21.716-2.73-22.488-6.792-25.138-11.629-25.982-16.312-27.094-27.811-38.697-44.977-38.054-58.01-46.343-58.709-46.6-59.404-46.863-60.1-47.126-64.042-55.107-72.895-59.44-75.76-68.219-72.452-72.64-69.145-77.061-65.837-81.481-53.635-86.178-62.09-65.986-47.852-71.191-49.393-70.266-49.727-71.867-49.955-73.401-50.668-78.213-52.499-84.191-46.183-85.84-40.737-87.261-37.851-82.127-35.188-77.871-33.501-75.176-33.31-69.359-27.491-73.271-25.338-74.06-23.214-74.098-21.075-73.304-8.167-67.344 2.993-57.257 18.228-56.815 29.251-50.27 36.542-39.722 45.751-31.233 46.987-25.687 42.025-23.628 39.531-20.181 34.636-20.697 30.896-24.16 25.678-25.615 24.123-20.971 29.718-16.943 26.901-12.505 18.883-6.296 9.317-3.416 0 0" fill="#049473"/>
<path transform="matrix(1,0,0,-1,434.5469,457.3667)" d="M0 0C-8.53 2.974-17.579-2.824-26.391 1.751-28.027 2.6-26.959-2.211-25.898-4.361-27.173-7.762-20.985-9.128-25.128-14.898-32.157-24.687-38.907-35.651-40.291-47.886-50.551-45.305-46.642-20-66.479-31.296-67.513-31.915-65.959-33.786-67.74-34.189-67.065-33.49-66.726-32.639-66.689-31.542-65.198-19.267-73.986-18.994-80.623-22.055-86.083-24.575-93.096-25.271-97.103-30.827-86.243-46.006-70.777-56.166-53.608-60.119-40.154-63.218-33.113-68.229-27.847-80.703-24.873-87.749-22.791-96.412-15.904-101.686-10.554-97.8-16.524-88.996-9.067-86.023-8.015-85.017-7.474-83.797-7.486-82.345-10.296-76.556-13.44-70.115-17.039-65.742-24.314-56.902-20.609-51.533-15.963-44.321-7.283-30.847 .364-16.814 0 0" fill="#007a5b"/>
<path transform="matrix(1,0,0,-1,636.3306,231.33887)" d="M0 0C-3.189 17.219-12.787 29.424-28.705 36.682-35.001 32.01-25.859 22.121-33.067 19.582-41.215 16.711-47.979 24.976-55.986 26.781-63.904 28.565-58.696 41.016-67.612 42.814-85.749 39.323-99.671 30.35-106.867 12.628-91.367 14.535-80.624 1.902-66.565-.617-56.671-1.4-48.457-9.366-37.917-7.413-27.9-5.39-17.312-6.71-7.672-2.429-5.19-1.419-2.5-1.004 0 0" fill="#7ac8ae"/>
<path transform="matrix(1,0,0,-1,570.6621,228.38233)" d="M0 0C-4.697 .904-9.033 1.489-13.011 5.418-20.992 13.302-30.717 15.461-41.199 9.672-45.173 5.036-45.811-.528-45.638-6.317-39.886-13.302-34.051-8.203-28.239-6.501-15.337-6.171-9.243-14.971-3.825-24.675-2.836-26.847-1.312-28.501 .837-29.561 7.592-31.109 14.799-31.756 20.424-36.151 27.419-41.616 30.862-48.385 25.026-56.917 23.493-59.857 20.254-61.208 18.414-63.756 11.104-73.875 13.356-79.036 25.929-81.113 28.64-81.561 31.078-82.333 33.125-84.153 37.591-87.417 32.306-97.845 42.425-96.927 45.971-88.199 56.28-84.777 59.193-75.553 59.23-74.965 59.267-74.378 59.32-73.811 58.101-73.42 57.511-72.661 57.567-71.556 58.611-71.914 59.684-72.032 60.823-71.908 62.072-71.36 62.901-70.459 63.347-69.205 63.401-67.526 63.455-65.846 63.508-64.166 57.084-56.797 50.954-63.637 44.809-64.484 49.382-57.043 63.271-52.106 51.595-39.994 48.986-39.149 46.129-39.128 43.667-37.727 39.386-35.402 36.086-32.134 33.944-27.699 24.073-16.679 14.629-5.156 0 0" fill="#1b9f7c"/>
<path transform="matrix(1,0,0,-1,955.9365,283.5288)" d="M0 0C19.045-.827 36.761 3.582 53.093 13.459 55.623 17.336 55.075 22.977 51.558 23.38 37.851 24.951 41.534 36.034 39.038 43.766 33.043 49.616 26.118 47.7 19.233 46.153 5.468 34.652 4.018 49.496-1.392 55.849-4.679 59.834-8.677 62.452-14.04 62.448-18.999 61.814-23.238 59.361-27.55 57.084-33.28 45.461-28.259 37.292-10.98 30.138-9.082 31.268-9.91 26.698-10.018 28.905-18.337 27.798-21.922 23.732-17.106 15.879-10.597 5.26-2.189 4.36 11.889 12.129 11.01 5.064-3.255 11.118 0 0" fill="#31ad86"/>
<path transform="matrix(1,0,0,-1,955.9365,283.5288)" d="M0 0C2.612 7.466 12.818 2.561 15.625 9.545 16.924 12.776 20.977 16.391 16.114 19.513 12.884 21.587 11.143 19.329 8.6 16.354 .263 6.601-9.909 8.009-16.035 18.969-16.674 20.112-16.82 22.303-16.143 23.28-12.882 27.99-8.206 26.252 .087 23.896-10.64 33.553-20.948 37.746-26.984 47.012-29.466 50.823-29.056 52.521-26.529 55.101-27.112 58.675-30.076 59.755-32.772 61.125-44.665 64.625-48.668 75.837-55.438 84.357-58.587 86.063-61.467 85.472-64.169 83.353-65.882 81.603-66.705 79.526-66.432 77.06-64.283 72.43-62.231 67.801-67.245 63.593-68.428 61.762-68.841 59.839-67.88 57.782-65.874 55.339-62.432 54.552-60.808 51.657-60.417 50.458-60.057 49.276-59.82 48.041-59.8 42.943-57.918 38.885-53.408 36.262-47.091 30.358-50.816 20.853-45.619 14.575-31.418 6.568-16.313 1.394 0 0" fill="#4cb895"/>
<path transform="matrix(1,0,0,-1,747.2959,72.25195)" d="M0 0C18.014-3.878 23.793 13.446 35.347 20.697 39.775 23.477 42.805 28.489 46.473 32.485 25.787 44.719-5.604 33.929-21.203 10.589-28.779-.746-35.217-12.724-38.421-26.16-34.781-31.73-31.427-37.802-22.991-35.014-26.674-15.884-8.579-11.067 .016-.008 1.953 3.088 2.988 6.634 4.985 9.984 4.467 5.892 1.623 3.253 0 0" fill="#84cfb6"/>
<path transform="matrix(1,0,0,-1,975.3994,238.59131)" d="M0 0C6.186-.78 12.372-1.557 18.558-2.335 23.034-6.016 27.98-7.607 33.704-5.769 35.658-4.78 37.911-3.569 38.493-1.583 42.327 11.486 48.638 4.311 54.574 .564 61.254 12.44 62.544 24.92 58.763 37.968 52.702 41.507 47.007 39.197 41.324 36.965 37.018 36.652 33.553 39.23 29.679 40.435 19.595 43.132 10.572 38.435 1.158 36.402-3.709 30.079-15.154 25.526-3.134 15.06-.173 12.482-7.216 8.257-7.222 3.856-6.284-.177-3.425-.622 0 0" fill="#7ccaaf"/>
<path transform="matrix(1,0,0,-1,833.436,261.771)" d="M0 0C-10.204 9.712-23.199 13.947-36.088 18.387-38.637 22.657-40.996 20.288-43.37 18.198-45.357 11.066-51.883 10.377-57.444 8.26-68.201 4.168-76.851-2.166-80.455-13.77-80.742-15.326-80.526-16.809-79.833-18.231-77.783-20.228-75.036-21.732-72.51-20.914-61.603-17.377-52.898-21.318-44.86-28.204-37.901-27.315-30.885-25.801-24.711-22.817-17.641-19.399-12.451-21.241-7.121-25.545 3.41-19.312 6.112-10.885 0 0" fill="#48b592"/>
<path transform="matrix(1,0,0,-1,787.6729,289.354)" d="M0 0C-4.115 11.311-10.508 17.223-23.045 10.5-26.441 8.68-30.496 9.05-34.092 11.051-36.161 11.703-37.851 10.396-39.714 9.979-39.815 9.958-39.926 10.382-39.707 10.554-37.955 11.925-36.031 11.641-34.091 11.05-26.266 24.362-15.411 33.549 .417 35.214 9.117 36.13 4.549 40.337 3.114 43.951 .317 46.604-2.998 46.413-6.414 45.722-18.246 41.521-30.453 38.697-42.646 35.745-48.854 34.241-55.672 33.039-58.914 26.164-58.97 24.247-58.069 23.035-56.221 22.525-53.205 3.247-55.509-17.187-43.822-34.582-37.457-31.794-39.083-23.667-34.027-20.004-25.858-8.341-11.66-8.166-.431-2.348-.283-1.567-.142-.783 0 0" fill="#35ab85"/>
<path transform="matrix(1,0,0,-1,353.9761,424.28565)" d="M0 0C7.227-1.8 11.546-7.98 17.536-11.643 22.067-13.446 26.662-14.894 30.172-18.798 32.391-21.264 37.033-22.977 38.922-20.195 44.396-12.13 53.29-11.835 60.497-7.96 68.937-3.421 74.614-5.184 81.703-7.504 81.885 1.218 81.233 9.719 75.268 16.815 64.927 16.925 58.699 9.079 51.261 3.887 48.332 1.842 46.823-2.26 42.101-2.432 37.902 3.725 44.309 7.181 46.163 12.875 33.402 12.827 21.17 12.324 9.584 5.238 6.203 13.105 22.119 15.949 12.809 24.114 10.956 25.74 14.01 32.494 8.18 32.508-.523 32.527 7.123 27.328 6.239 24.682 4.752 20.23 1.871 21.252-1.496 21.208-8.074 21.119-12.927 18.358-12.896 10.708-12.15 2.861-5.882 1.663 0 0" fill="#45aa8d"/>
<path transform="matrix(1,0,0,-1,833.436,261.771)" d="M0 0C-.255-8.767-1.583-17.309-5.33-25.342-8.278-26.792-11.409-27.951-14.654-27.941-24.056-27.913-31.534-29.766-34.036-40.808-35.121-45.6-41.004-47.275-44.926-50.108-46.08-51.181-46.842-52.491-47.239-54.015-45.526-61.751-39.434-64.788-33.997-60.556-19.676-49.411-5.161-53.597 9.739-57.418 23.682-51.39 28.19-41.146 25.252-22.214 19.252-12.06 11.667-3.71 0 0" fill="#54b997"/>
<path transform="matrix(1,0,0,-1,899.6235,201.19824)" d="M0 0C3.336-12.216 9.605-21.615 23.108-24.07 30.773-19.919 27.852-12.55 27.928-6.501 28.071 5.027 27.907 16.391 33.81 26.92 36.285 31.334 37.926 36.939 32.735 40.155 26.177 44.217 25.092 35.667 22.094 32.819 25.278 39.758 25.705 44.833 17.341 47.584 5.484 45.753-1.327 34.7-12.348 31.343-12.645 19.157-7.356 9.172 0 0" fill="#7dceb1"/>
<path transform="matrix(1,0,0,-1,565.4302,595.8726)" d="M0 0C13.334 30.159 2.206 51.269-33.07 62.732-34.155 59.092-32.571 55.677-32.237 52.155-31.075 44.345-36.151 36.715-32.974 28.877-25.419 20.592-38.476 20.493-38.48 15.188-39.167 2.456-28.061 3.505-20.812 .012-13.882-.725-6.937-3.083 0 0" fill="#4baf93"/>
<path transform="matrix(1,0,0,-1,1005.6826,201.96192)" d="M0 0C3.78-1.244 7.56-2.488 11.34-3.732 12.786 5.081 23.399 2.373 26.879 8.632 20.907 35.878-3.388 54.317-35.803 56.208-40.855 54.302-40.236 50.522-39.019 46.536-35.712 41.388-28.896 39.961-26.084 34.286-23.618 25.245-15.622 19.694-12.525 10.384-8.783-.864-2.829 9.104 2.209 12.149 1.32 7.976-.556 4.182 0 0" fill="#7bcaaf"/>
<path transform="matrix(1,0,0,-1,442.3779,595.6079)" d="M0 0C4.884-4.537 7.828-11.323 15.136-13.047 31.411-12.044 35.037-7.93 29.504 5.748 26.435 13.339 31.236 16.718 34.513 21.37 35.562 23.311 34.673 20.709 35.333 22.784 38.092 31.458 48.064 37.946 44.827 48.187 40.611 61.522 27.599 49.412 20.498 55.492 4.611 54.002 6.101 39.273 .793 29.709 .28 23.821-4.317 18.786-2.937 12.479 2.585 9.4-3.973 3.451 0 0" fill="#007556"/>
<path transform="matrix(1,0,0,-1,501.8125,632.6592)" d="M0 0C22.987-1.704 41.047 8.151 56.517 24.084 56.334 29.945 53.394 33.601 47.751 35.102 39.839 32.86 34.621 45.138 26.035 39.241 24.776 33.351 21.049 33.471 17.069 36.167 11.357 40.036 5.542 41.584-1.04 38.815-2.401 38.035-3.509 36.982-4.39 35.686-6.407 23.369-5.093 11.451 0 0" fill="#1d977a"/>
<path transform="matrix(1,0,0,-1,501.8125,632.6592)" d="M0 0C3.167 12.117-3.086 23.421-3.044 35.269-6.172 40.935-5.462 48.068-9.422 53.274-13.557 58.709-18.03 64.658-26.25 59.269-38.115 52.967-39.045 49.025-31.149 38.514-27.389 33.508-30.902 29.632-44.298 24.004-39.374 17.04-31.962 13.547-24.647 9.918-16.299 7.166-6.253 8.543-.316-.078Z" fill="#00896b"/>
<path transform="matrix(1,0,0,-1,681.9175,364.1377)" d="M0 0C-16.1-.973-18.931-18.756-31.178-24.61-32.775-24.792-34.393-24.971-35.862-25.64-42.457-28.645-46.643-34.013-44.35-40.902-41.849-48.414-34.442-44.861-28.921-45.137-19.603-44.295-10.514-47.485-1.195-46.879 10.072-31.53 11.283-15.924 0 0" fill="#4fb294"/>
<path transform="matrix(1,0,0,-1,367.4761,489.7998)" d="M0 0C15.557 8.313 11.605-11.945 20.462-14.191 23.496-14.959 20.808-25.582 29.196-21.194 34.059-18.65 40.275-15.461 29.874-11.515 39.478-2.579 38.114 13.095 49.635 20.749 51.612 22.062 53.233 23.003 53.076 25.573 50.336 32.213 43.862 21.187 41.172 28.073 38.544 26.14 35.915 24.207 33.286 22.275 24.319 16.225 15.362 10.145 3.717 11.329-6.719 12.33-14.127 19.792-23.108 23.9-31.291 22.38-32.034 14.065-36.544 9.19-34.374 6.662-32.204 4.134-30.032 1.606-24.621 4.382-17.887-.166-12.389 7.825-8.695 13.194-1.002 8.12 0 0" fill="#006c4c"/>
<path transform="matrix(1,0,0,-1,858.688,283.98487)" d="M0 0C-3.227-11.966-2.07-25.948-15.317-33.306-22.418-33.599-26.532-37.455-28.283-44.146-28.772-46.667-28.636-49.146-27.655-51.537-20.711-59.123-14.773-52.396-7.843-49.092-11.493-55.611-17.837-57.41-21.508-61.907-25.106-66.314-32.449-71.16-22.936-77.106 10.807-64.736 22.095-26.789 0 0" fill="#81cfb3"/>
<path transform="matrix(1,0,0,-1,570.6621,228.38233)" d="M0 0C11.334-10.751 22.669-21.5 34.003-32.251 37.733-34.988 42.092-37.222 42.347-42.725 45.054-43.904 47.33-42.818 49.535-41.356 58.279-40.727 64.397-35.554 70.018-29.518 69.846-20.455 69.521-11.417 65.668-2.957 63.916-.935 62.001 .725 59.026 .029 50.919-12.307 38.766-8.475 27.423-7.878 18.282-5.252 9.141-2.625 0 0" fill="#64bda0"/>
<path transform="matrix(1,0,0,-1,445.5322,567.4639)" d="M0 0C6.29 8.383 5.13 21.7 17.33 26.17 18.948 26.19 19.859 27.003 20.062 28.609 16.896 35.191 21.915 40.715 22.418 46.824 19.119 53.305 15.989 60.083 6.584 55.828 2.301 47.054-3.169 38.641-5.967 29.415-9.577 17.518-13.465 21.808-18.472 27.752-19.165 27.187-19.841 26.6-20.499 25.993-20.619 18.144-17.046 9.785-23.695 2.837-25.306-.518-22.974-2.327-20.918-4.244-12.888-8.045-5.004-11.117 0 0" fill="#2d997f"/>
<path transform="matrix(1,0,0,-1,783.272,245.8916)" d="M0 0C2.504 .166 5.008 .33 7.514 .492 9.703 1.162 11.892 1.835 14.078 2.508 31.659 12.218 50.354 17.546 70.578 16.86 70.853 24.328 69.126 31.098 63.709 36.584 40.239 30.59 16.769 24.598-6.701 18.604-4.654 12.335-3.403 5.78 0 0" fill="#8ed5bc"/>
<path transform="matrix(1,0,0,-1,846.981,209.30762)" d="M0 0C-.507-7.548 1.24-14.312 6.87-19.724 7.598-20.471 8.406-21.117 9.294-21.665 18.473-21.033 20.282-12.189 25.708-7.423 31.634-2.216 36.447 5.219 45.26 6.611 47.493 8.23 49.836 9.308 52.643 8.109 49.391 18.9 46.587 29.867 40.293 39.456 26.863 26.301 13.432 13.15 0 0" fill="#5ac19e"/>
<path transform="matrix(1,0,0,-1,545.7173,411.1416)" d="M0 0C-8.409 7.511-16.776-.002-25.164-.067-33.276-7.975-40.914-16.275-46.625-26.158-51.194-36.871-63.633-47.619-46.476-58.231-32.092-37.936-16.647-18.488 0 0" fill="#30a182"/>
<path transform="matrix(1,0,0,-1,731.4517,266.8286)" d="M0 0C-.709 1.071-1.417 2.141-2.125 3.21-7.601 11.943-16.591 9.131-24.457 10.01-41.607 3.959-57.329-4.471-70.271-17.525-66.18-22.469-62.738-28.13-56.144-30.302-39.455-16.451-19.302-9.013 0 0" fill="#71c3a8"/>
<path transform="matrix(1,0,0,-1,760.2163,201.10254)" d="M0 0C-12.537 .888-6.16 12.987-10.937 18.599-13.74 21.893-7.285 29.477-15.542 30.523-21.208 31.242-24.644 27.516-26.462 22.344-27.348 19.829-27.655 16.379-31.522 17.279-36.679 18.478-33.03 22.02-33.508 24.595-36.076 38.437-44.109 28.187-49.993 27.709-43.886 14.322-41.197-.624-31.686-12.459-23.66-10.455-16.021-6.942-7.645-6.304-6.597-5.743-5.549-5.182-4.501-4.62-2.049-4.008-.15-2.856 0 0" fill="#41b490"/>
<path transform="matrix(1,0,0,-1,445.5322,567.4639)" d="M0 0C-5.874-6.832-14.247-1.345-20.918-4.244-26.345-26.586-31.087-49.032-31.163-72.181-21.237-78.576-16.154-72.777-12.023-64.581-10.847-55.263-9.671-45.944-8.495-36.625-16.081-29.761-10.688-25.005-5.799-20.182-4.865-18.955-4.347-17.562-4.227-16.021-4.471-10.245 2.869-6.469 0 0" fill="#008468"/>
<path transform="matrix(1,0,0,-1,655.8706,405.854)" d="M0 0C-4.993 3.721-10.257-1.527-15.656 .306-16.489 8.807-10.313 12.652-5.13 17.106-21.696 20.588-31.867 9.968-42.423 .199-44.501-2.835-44.112-5.773-42.101-8.654-40.958-9.774-39.587-10.498-38.044-10.903-26.065-8.223-18.351-21.842-5.44-18.063-14.033-28.688-14.033-28.688-4.351-32.157 5.739-28.938 15.886-25.795 19.196-13.854 14.199-7.294 5.045-6.495 0 0" fill="#1f9a7a"/>
<path transform="matrix(1,0,0,-1,916.9644,153.61426)" d="M0 0C4.032-8.491 4.032-8.491-6.285-21.229 1.961-19.397 1.961-19.397 15.603-9.844 2.811-29.201 7.917-50.902 5.768-71.653 7.993-72.707 10.218-73.759 12.442-74.813 18.066-76.333 20.948-71.623 24.896-69.333 14.517-53.538 20.24-38.329 26.616-23.144 27.958-17.587 29.517-12.076 29.818-6.313 29.728 .678 25.996 5.003 19.726 7.458 12.494 6.707 5.815 4.496 0 0" fill="#64c2a1"/>
<path transform="matrix(1,0,0,-1,706.9951,256.81837)" d="M0 0C6.149-6.518 15.416-2.801 22.332-6.8 39.138 2.682 59.651 .88 76.276 10.923 79.542 19.112 78.309 25.676 69.574 29.533 67.68 28.269 65.785 27.007 63.889 25.746 58.291 24.261 53.065 21.189 49.319 17.416 39.051 7.067 49.018 25.446 43.651 21.156 36.1 23.26 31.189 19.439 27.083 13.81 18.742 7.86 7.587 7.427 0 0" fill="#80cdb2"/>
<path transform="matrix(1,0,0,-1,433.5093,632.0449)" d="M0 0C-5.53-4.673-11.406-8.477-19.14-7.6-23.856-20.118-20.134-33.543-23.352-46.277-25.034-52.935-23.686-57.851-14.94-58.311-7.414-58.705-3.45-55.897-2.944-48.657-1.812-32.449-.964-16.22 0 0" fill="#2f9a80"/>
<path transform="matrix(1,0,0,-1,567.9551,251.57959)" d="M0 0C.868 1.305 1.736 2.609 2.605 3.914-7.116 9.449-11.366 23.628-25.724 21.831-24.595 11.948-25.047 3.614-38.97 7.106-42.085 7.886-43.989 5.717-44.9 2.801-45.365-1.809-45.829-6.417-46.293-11.027-39.983-13.046-40.174-20.446-35.62-23.918-27.573-26.411-20.44-26.139-16.897-16.922-13.739-8.711-2.972-8.279 0 0" fill="#32a785"/>
<path transform="matrix(1,0,0,-1,747.6689,308.3047)" d="M0 0C-1.273-5.211-2.545-10.421-3.818-15.631 1.468-31.185 10.11-44.085 24.994-52.045 37.119-54.613 32.373-44.587 34.363-39.562 35.008-33.726 33.415-28.048 33.152-22.263 33.047-19.994 32.689-17.782 31.789-15.675 29.309-11.324 25.264-9.283 20.632-8.093 14.91-7.523 11.193-9.156 12.242-17.257 9.793-9.309 11.566 .464 0 0" fill="#009773"/>
<path transform="matrix(1,0,0,-1,608.7222,405.0923)" d="M0 0C.086 2.132 .991 5.621 .111 6.152-3.004 8.03-5.931 6.44-7.902 3.532-11.355-1.561-10.422-9.755-18.776-11.424-21.215-10.28-20.283-8.011-20.413-5.896-20.722-.87-10.216 5.614-20.38 8.648-28.627 11.112-34.038 3.916-34.202-4.214-34.286-8.307-35.92-8.499-38.393-9.293-28.434-23.999-14.817-33.062 2.783-35.975 4.369-36.237 5.455-35.59 6.115-34.159 4.48-28.849 .464-24.484-.017-18.708-3.178-12.467 .221-6.232 0 0" fill="#1f9a7a"/>
<path transform="matrix(1,0,0,-1,614.0376,438.81153)" d="M0 0C-.844-.751-1.688-1.503-2.532-2.255 11.089-4.947 24.678-7.214 37.482 .801 35.82 2.549 29.125 2.655 33.739 6.357 37.776 9.597 41.088 12.268 41.871 17.418 33.693 19.41 24.351 15.563 17.851 25.312 15.076 29.473 7.769 26.245 2.959 23.377-7.657 16.804-.137 7.935 0 0" fill="#39a686"/>
<path transform="matrix(1,0,0,-1,435.6792,431.79005)" d="M0 0C-7.812 6.207-14.958 19.45-23.776 .153-27.127-7.18-28.802 12.763-33.687 2.672-41.46-13.384-52.661-8.071-64.167-4.139-64.187-4.685-64.089-5.267-64.244-5.772-66.118-11.923-81.928-11.551-74.246-19.887-68.499-26.123-65.551-11.56-58.721-10.502-53.755-24.279-54.54-22.683-39.792-15.433-27.828-9.55-13.685-8.099-.507-4.681-.338-3.121-.169-1.561 0 0" fill="#229779"/>
<path transform="matrix(1,0,0,-1,568.7187,188.52442)" d="M0 0C-1.475-20.184 16.576-21.382 28.317-28.081 31.694-30.008 38.714-28.605 42.433-26.204 49.111-21.89 40.049-19.665 39.73-15.972 39.446-12.694 39.18-9.414 38.907-6.133 26.764 1.155 13.515 1.419 0 0" fill="#8acfb8"/>
<path transform="matrix(1,0,0,-1,501.4224,595.4106)" d="M0 0C9.631 3.134 15.415-8.147 24.899-6.467 32.692-5.087 29.934-3.181 25.742-.59 27.845 3.864 17.889 9.8 27.454 13.337 32.815 17.563 38.177 21.79 43.456 25.951 39.446 31.272 35.07 27.242 31.838 29.32 25.29 37.9 34.547 44.746 34.396 52.625 36.042 56.843 32.994 59.38 30.937 62.27 28.513 63.226 26.087 64.182 23.662 65.138 22.519 65.33 20.641 65.099 20.675 64.645 21.563 52.854 13.43 43.376 12.392 32.1 15.722 24.042 12.555 19.451 4.564 17.43-.325 15.31-.978 10.842-1.593 6.337-1.733 4.058-1.385 1.896 0 0" fill="#2b9e81"/>
<path transform="matrix(1,0,0,-1,892.2407,202.69678)" d="M0 0C-14.591 9.501-14.517-10.654-24.199-12.78-26.811-13.354-32.696-22.363-35.966-28.276-32.263-35.113-25.919-38.146-18.862-40.15-16.267-35.076-17.521-29.46-16.39-22.022-14.29-29.579-14.129-35.71-11.451-40.962-9.268-45.245-6.811-50.335-.738-48.957 4.465-47.775 4.885-43.384 4.697-38.58 4.575-35.471 6.562-32.385 6.117-29.042L6.133-29.014C5.057-24.265-.096-25.748-2.656-23.268-2.491-21.715-2.324-20.161-2.158-18.608 1.643-14.339 2.236-9.7-.548-4.671-.366-3.114-.183-1.557 0 0" fill="#72cbab"/>
<path transform="matrix(1,0,0,-1,801.5278,114.131839)" d="M0 0C16.209 4.524 18.589 20.766 27.021 31.883 28.641 34.019 30.332 36.103 31.99 38.209 31.851 39.245 31.586 40.249 31.198 41.219 25.4 45.802 22.793 57.944 15.533 55.531 9.001 53.361 8.225 42.069 6.288 34.229 5.007 29.04 6.6 23.109 2.318 18.691 1.733 12.438-2.745 6.667 0 0" fill="#3db98f"/>
<path transform="matrix(1,0,0,-1,501.4224,595.4106)" d="M0 0C.173 1.571 .347 3.143 .52 4.714 .08 8.512-.037 12.343-.625 16.127-1.205 33.503-7.49 49.354-13.762 65.208-23.233 67.722-28.915 60.566-35.828 56.555-36.739 55.744-37.649 54.931-38.56 54.118-37.446 47.606-33.136 46.113-27.831 48.372-24.639 49.731-22.566 54.378-18.446 49.789-14.404 45.285-17.63 42.022-19.683 38.156-22.382 33.072-28.104 29.02-25.859 22.02-15.837 20.831-9.574 16.279-9.817 5.123-9.911 .804-7.578-2.168-2.655-1.98-1.802-1.276-.917-.616 0 0" fill="#008163"/>
<path transform="matrix(1,0,0,-1,307.7622,397.71339)" d="M0 0C7.097 4.776 10.408-3.288 15.7-4.63 16.676-8.734 18.411-10.991 22.536-7.442 34.307 2.966 41.47 14.786 34.324 30.995 17.251 26.899 7.704 14.471 0 0" fill="#3ea78a"/>
<path transform="matrix(1,0,0,-1,825.1309,133.36865)" d="M0 0C-12.33 3.104 .184 13.818-7.974 20.66-12.288 5.501-24.097-4.016-31.711-16.396-36.431-24.07-26.766-28.529-23.687-34.489-14.779-23.688-3.209-14.715 0 0" fill="#67c8a5"/>
<path transform="matrix(1,0,0,-1,470.6377,476.0293)" d="M0 0C-6.957-8.748-12.755-18.079-14.742-29.326-9.609-38.753-3.695-40.293 3.283-31.114 7.97-26.991 11.989-22.458 12.634-15.856 13.242-9.789 20.414-3.654 13.385 2.266 8.738 6.179 3.384 7.074 0 0" fill="#26977c"/>
<path transform="matrix(1,0,0,-1,778.772,347.41603)" d="M0 0C-2.816-3.944 3.633-12.262-6.109-12.934 9.272-26.833 26.289-27.532 44.425-19.193 44.665-17.634 44.459-16.136 43.823-14.695 30.52-5.929 16.931 2.021 0 0" fill="#3ba786"/>
<path transform="matrix(1,0,0,-1,1007.9951,242.32129)" d="M0 0C-4.679 .466-9.358 .932-14.038 1.396-14.693-2.335-15.15-6.114-16.049-9.784-17.516-15.774-18.724-21.198-9.194-18.67-1.35-16.59 .177-21.842 1.034-27.748 8.562-22.31 17.378-17.924 18.06-6.896 14.66 2.267 7.047 .39 0 0" fill="#1da27d"/>
<path transform="matrix(1,0,0,-1,640.6797,257.9004)" d="M0 0C-9.601 .853-13.718-7.784-20.484-11.836-11.039-22.567-24.654-25.728-27.5-32.347-28.331-34.283-34.681-32.885-30.866-38.442-27.373-43.531-26.274-38.66-23.729-37.852-18.208-36.096-12.274-35.636-6.509-34.648-.255-23.866-2.151-11.553 0 0" fill="#36a886"/>
<path transform="matrix(1,0,0,-1,724.3047,107.26611)" d="M0 0C-5.144 2.952-10.287 5.903-15.43 8.854-22.472-1.627-21.837-13.353-20.935-25.121-16.731-26.063-12.524-26.251-8.289-25.216-3.572-23.648-2.598-11.756 6.301-20.645 8.658-23 14.814-20.586 17.544-16.237 17.46-14.471 16.579-13.455 14.785-13.296 9.857-8.864 4.928-4.432 0 0" fill="#5fc09f"/>
<path transform="matrix(1,0,0,-1,470.6377,476.0293)" d="M0 0C21.428 8.431 9.336-9.842 12.634-15.856 17.957-8.353 23.281-.848 28.604 6.656 18.588 17.302 27.748 28.035 28.455 38.73 17.268 27.071 7.894 14.079 0 0" fill="#53b094"/>
<path transform="matrix(1,0,0,-1,821.3818,364.187)" d="M0 0C.572-.833 1.177-1.641 1.815-2.422 7.449-3.879 10.539 .452 14.371 3.096 10.179 11.557 16.809 14.593 22.013 18.35 25.543 20.898 29.326 23.175 32.514 26.099 35.769 29.084 35.813 32.302 32.512 35.988 26.812 42.352 26.832 35.012 25.02 33.014 20.888 28.457 16.405 26.416 10.523 29.399 8.993 29.572 7.567 29.267 6.234 28.494 3.217 26.039 1.563 22.653-.098 19.263-3.883 12.826-2.914 6.406 0 0" fill="#6dc3a7"/>
<path transform="matrix(1,0,0,-1,898.3579,231.73828)" d="M0 0C-5.343-4.636-.147-17.597-9.12-16.74-17.839-15.909-15.003-3.916-17.657 2.872-18.777 5.739-14.253 11.485-20.807 12.478-28.129 13.586-25.869 6.825-26.667 3.16-27.713-1.641-28.583-6.723-24.979-11.108-16.445-19.171-7.711-26.944 3.698-30.827 11.595-25.419 8.552-18.927 5.522-12.436-1.535-10.607 3.95-3.209 0 0" fill="#5ec19f"/>
<path transform="matrix(1,0,0,-1,487.6602,530.2026)" d="M0 0C-1.21-1.752-3.851-4.489-3.422-5.112 6.025-18.833 6.839-35.141 10.603-50.545 21.315-47.387 16.227-37.358 19.232-30.827 19.713-26.733 20.489-22.678 20.812-18.554 21.542-8.362 16.926-1.718 7.397 1.657 4.931 1.105 2.466 .553 0 0" fill="#007757"/>
<path transform="matrix(1,0,0,-1,714.2476,132.0586)" d="M0 0C-3.771 4.659-7.344 2.799-10.879-.329-9.482-12.761-9.295-25.409-4.326-37.206 1.471-30.154 12.214-35.143 17.99-28.039 18.091-14.779 2.494-11.594 0 0" fill="#45b792"/>
<path transform="matrix(1,0,0,-1,517.0649,561.7842)" d="M0 0C-1.628 2.597-2.029 4.527 1.378 6.467 9.369 11.016 16.326 15.923 4.82 24.706 3.18 25.958 5.899 29.637 8.019 31.511-.363 33.427-8.579 37.933-17.394 33.153-18.273 25.548-6.574 23.605-9.306 15.165-9.709 9.358-10.284 3.561-9.656-2.271-9.119-5.324-8.664-8.438-4.868-9.248 .265-8.012 .283-4.084 0 0" fill="#45aa8d"/>
<path transform="matrix(1,0,0,-1,936.6899,146.15625)" d="M0 0C3.586-4.665 7.088-9.372 7.711-15.51 8.353-15.884 8.993-16.259 9.628-16.646 17.244-19.286 24.318-18.787 30.49-13.041 31.458-11.859 31.977-10.499 32.056-8.971 31.1-5.685 31.467-2.561 33.19 .401 22.062 5.642 11.054 .857 0 0" fill="#87d1b7"/>
<path transform="matrix(1,0,0,-1,752.5713,207.40674)" d="M0 0C-10.062 5.945-17.958 3.438-24.041-6.156-21.508-9.69-18.976-13.226-16.443-16.761-10.862-23.855-10.862-23.855-1.364-14.107 .499-9.542 .94-4.837 0 0" fill="#53c19c"/>
<path transform="matrix(1,0,0,-1,330.9321,480.60993)" d="M0 0C9.041 .738 9.29 9.505 13.436 14.711 10.514 16.664 7.592 18.615 4.67 20.567-2.241 15.863-8.779 25.485-15.683 21.097-10.802 13.807-7.529 5.322 0 0" fill="#008367"/>
<path transform="matrix(1,0,0,-1,523.0547,248.77832)" d="M0 0C8.298 6.035 10.322-5.65 18.912-6.071 7.863 3.519 38.524 8.504 19.177 19.03 14.125 15 8.628 12.524 1.97 14.079-.064 9.58-.604 4.87 0 0" fill="#4eb191"/>
<path transform="matrix(1,0,0,-1,1007.9951,242.32129)" d="M0 0C6.02-2.299 12.04-4.598 18.06-6.896 22.109-4.125 22.816-.186 21.979 4.294 21.128 11.906 15.642 14.867 9.242 17.242 6.077 11.36 5.314 4.435 0 0" fill="#67bfa2"/>
<path transform="matrix(1,0,0,-1,421.8369,564.6265)" d="M0 0C12.007 6.796 12.35 9.275 3.196 23.156-14.978 23.126-.92 11.382-3.194 5.574-2.13 3.716-1.065 1.858 0 0" fill="#007152"/>
<path transform="matrix(1,0,0,-1,663.0674,345.40919)" d="M0 0C-.03-7.29-15.143-11.563-7.159-17.894-.768-22.96 7.691-14.793 12.63-7.674 8.934-4.273 5.493-.448 0 0" fill="#36a484"/>
<path transform="matrix(1,0,0,-1,655.8706,405.854)" d="M0 0C.887-12.255 10.528-12.381 19.196-13.854 23.56-12.57 23.512-8.415 24.852-5.163 17.648 1.76 8.562-.383 0 0" fill="#008c6a"/>
<path transform="matrix(1,0,0,-1,751.207,221.51367)" d="M0 0C-2.476 2.327-4.875 4.311-6.364-.866-8.115-6.951-11.229-6.657-15.079-2.655-15.762-8.934-16.445-15.213-17.129-21.494-11.382-19.744-5.634-17.992 .114-16.24 1.41-16.299 2.204-15.671 2.562-14.446-2.189-10.322 1.176-4.759 0 0" fill="#3bb18a"/>
<path transform="matrix(1,0,0,-1,753.7686,235.95996)" d="M0 0C-.829-.582-1.645-1.181-2.449-1.796-5.069-4.837-7.688-7.88-11.801-12.656 3.417-13.146 8.402-.995 17.117 4.89 10.781 5.463 5.486 2.394 0 0" fill="#94d6bf"/>
<path transform="matrix(1,0,0,-1,547.8428,600.7935)" d="M0 0C5.629 .281 7.349-4.705 10.487-7.782 12.854-3.548 15.221 .687 17.587 4.921 11.505 7.903 5.113 8.487-1.498 7.384-6.104 3.888-4.207 1.709 0 0" fill="#007f5c"/>
<path transform="matrix(1,0,0,-1,903.8804,244.17432)" d="M0 0C-1.068-6.085 1.229-12.503-1.825-18.391 .286-21.353 1.608-25.334 6.437-24.779 5.625-16.173 10.911-5.982 0 0" fill="#33b088"/>
<path transform="matrix(1,0,0,-1,438.9238,585.6094)" d="M0 0C-7.43-1.831-11.136-6.665-10.548-14.207-10.109-19.847-5.921-19.353-1.886-18.479-1.069-16.177-.252-13.875 .564-11.573-.942-7.779 4.405-3.652 0 0" fill="#007152"/>
<path transform="matrix(1,0,0,-1,501.4966,632.7368)" d="M0 0C-3.482 14.597-14.484 10.893-24.332 9.996-17.734 2.979-8.653 2.013 0 0" fill="#44a187"/>
<path transform="matrix(1,0,0,-1,1032.5615,193.32959)" d="M0 0C-6.196-2.844-17.417 .627-15.539-12.364-10.806-7.363-3.587-10.763 1.601-7.294 2.709-4.503 1.649-2.187 0 0" fill="#70c4a8"/>
<path transform="matrix(1,0,0,-1,473.9204,507.14363)" d="M0 0C-6.442-3.777-12.489-3.581-18.025 1.788-20.615 .495-22.48-1.234-21.804-4.492-14.882-4.603-12.312-12.364-5.97-13.497-2.652-9.584-.576-5.124 0 0" fill="#53ac93"/>
<path transform="matrix(1,0,0,-1,509.3682,546.6953)" d="M0 0C4.725 10.293-8.189 11.118-9.697 18.064-11.235 18.093-12.772 18.121-14.311 18.149-9.208 11.533-2.274 5.679-5-4.199-2.09-4.281-.45-2.849 0 0" fill="#008163"/>
<path transform="matrix(1,0,0,-1,438.9238,585.6094)" d="M0 0C.27-3.854-3.272-7.893 .565-11.572 1.594-11.17 2.557-10.645 3.454-9.999 7.365-5.58 12.366-1.065 2.381 2.124 1.628 1.371 .834 .663 0 0" fill="#005034"/>
<path transform="matrix(1,0,0,-1,304.5986,421.06349)" d="M0 0C4.243 3.853 7.393 7.708 .037 11.599-3.388 7.743-2.153 3.873 0 0" fill="#51aa8f"/>
<path transform="matrix(1,0,0,-1,605.8315,310.38478)" d="M0 0C.89 4.443-3.915 2.85-4.874 4.457-8.622 10.735-16.176-1.932-17.556 6.65-18.499 12.512-14.14 18.236-9.148 22.339-10.768 26.562-14.3 25.652-17.186 24.8-22.153 23.334-24.366 22.957-24.287 29.921-24.203 37.335-29.037 42.775-37.029 44.252-49.768 41.786-58.121 35.148-58.8 21.254-58.116 20.357-57.432 19.459-56.747 18.562-50.366 17.596-47.649 23.842-41.219 26.291-42.106 14.115-39.621 3.292-30.397-4.838-19.499-7.964-7.716-16.716 0 0" fill="#2ea582"/>
<path transform="matrix(1,0,0,-1,621.0015,361.72657)" d="M0 0C10.439-5.609 14.905 7.308 24.435 6.1 18.391 15.097 12.66 21.75 2.926 23.115-11 12.203-24.929 1.291-38.857-9.621-41.574-12.031-45.016-13.933-44.932-18.304-44.935-18.304-44.413-18.259-44.413-18.259-36-18.624-31.056-12.48-24.953-8.247-17.562-3.12-10.768 4.743 0 0" fill="#008f6d"/>
<path transform="matrix(1,0,0,-1,547.0312,289.13038)" d="M0 0C5.158 8.946 11.461 16.728 21.266 20.959 24.937 23.993 26.92 27.568 24.938 32.413 23.601 34.125 22.263 35.838 20.924 37.551 11.441 33.601 1.219 30.52-1.256 18.427-3.092 9.461-12.88 22.69-14.7 13.631-14.167 12.667-13.592 11.73-12.973 10.819-13.021 7.938-11.726 6.148-8.799 5.685-8.799 5.685-8.808 5.679-8.807 5.68-4.283 6.251-2.455 2.639 0 0" fill="#199c7a"/>
<path transform="matrix(1,0,0,-1,574.7583,313.76759)" d="M0 0C-4.954 11.148-9.039 22.428-3.496 34.705-16.039 36.745-19.219 26.771-25.675 21.944-24.297 20.247-22.919 18.55-21.542 16.854-11.357 14.457-9.428 3.547-2.205-1.903-.826-2.015-.09-1.38 0 0" fill="#199c7a"/>
<path transform="matrix(1,0,0,-1,538.2329,283.4453)" d="M0 0C-1.392 1.711-2.782 3.424-4.174 5.135-4.312 1.669-10.998 .015-7.9-3.339-5.641-5.784-2.563-1.581 0 0" fill="#59b59a"/>
<path transform="matrix(1,0,0,-1,801.5278,114.131839)" d="M0 0C2.168 6.058 7.146 11.768 2.315 18.691-5.526 11.248-16.568 10.491-25.525 5.373-31.324-3.258-38.294-10.424-48.797-13.151-57.655-19.94-64.623-26.269-49.989-35.051-44.502-38.344-53.947-41.396-52.768-45.599-43.93-51.583-38.046-47.288-32.247-40.333-21.217-27.106-14.032-10.808 0 0" fill="#7bceb0"/>
<path transform="matrix(1,0,0,-1,754.6548,129.76026)" d="M0 0C12.508 1.521 18.8 9.358 21.348 21.002 9.312 16.227-1.719 8.314-15.564 9.195-14.848 8.245-14.131 7.291-13.414 6.337-12.423-3.141-5.341 .27 0 0" fill="#54be9a"/>
<path transform="matrix(1,0,0,-1,742.1182,104.57764)" d="M0 0C-.308-1.281-1.325-3.32-1.094-5.206-.886-6.896 1.459-7.462 2.458-6.039 3.534-4.505 4.121-2.248 3.999-.366 3.89 1.289 2.263 1.943 0 0" fill="#6cc7a7"/>
<path transform="matrix(1,0,0,-1,330.2979,405.15577)" d="M0 0C-2.278 .94-4.555 1.879-6.834 2.815-11.644-1.639-13.027-9.272-7.114-10.289 4.567-12.3 12.56-21.029 23.335-23.522 26.448-24.242 24.152-20.751 23.678-19.131 19.379-15.56 15.081-11.99 10.781-8.42 4.957-8.47 3.291-3.195 0 0" fill="#00805e"/>
<path transform="matrix(1,0,0,-1,754.6548,129.76026)" d="M0 0C-4.317 2.438-10.218 1.524-13.414 6.337-19.293 6.266-26.393 .087-30.458 9.149-32.309 13.274-35.285 16.623-38.779 13.826-43.142 10.333-35.924 9.824-35.377 7.042-34.465 2.409-39.946 1.449-40.407-2.298-45.292-3.598-46.881-5.292-42.365-9.602-35.432-16.216-29.04-23.397-22.417-30.337-16.91-30.215-11.402-30.092-5.895-29.971 6.502-22.543 5.641-23.624-5.446-14.786-13.458-8.397-4.288-4.149 0 0" fill="#6cc7a7"/>
<path transform="matrix(1,0,0,-1,335.6025,460.04249)" d="M0 0C.62 6.166 9.072 6.609 9.528 12.493 10.126 20.198 11.337 27.35 2.484 33.262-9.035 40.954-11.636 29.846-18.292 27.143-17.565 25.236-17.114 23.388-16.834 23.414 1.515 25.087 5.368 17.41-2.621 1.785-2.682 1.667-.914 .614 0-.001Z" fill="#2d9d80"/>
<path transform="matrix(1,0,0,-1,371.1929,478.4712)" d="M0 0C14.554-9.048 23.165-2.039 29.569 10.943 13.672 20.518 5.575 17.521 0 0" fill="#007a5b"/>
<path transform="matrix(1,0,0,-1,574.7583,313.76759)" d="M0 0C-.758-.611-1.496-1.247-2.208-1.904-.815-4.281 .823-6.548 1.925-9.052 10.391-28.265 15.989-29.761 32.03-16.904 34.182-15.179 36.236-13.333 38.333-11.543 30.166-9.36 41.022 2.069 31.073 3.383 21.966-9.233 10.167 2.881 0 0" fill="#00916e"/>
<path transform="matrix(1,0,0,-1,621.0015,361.72657)" d="M0 0C1.465 3.598 3.212 7.5-1.387 9.937-4.699 11.69-6.588 8.106-9.01 7.111-22.948 1.378-31.301-11.746-44.416-18.26-27.885-16.364-11.037-15.253 0 0" fill="#008360"/>
<path transform="matrix(1,0,0,-1,608.7222,405.0923)" d="M0 0C-7.145-5.517-8.304-11.695-2.067-18.691 5.141-18.459 4.087-11.933 6.211-7.827 5.715-5.406 5.22-2.984 4.726-.563 3.15-.375 1.575-.188 0 0" fill="#008e6c"/>
<path transform="matrix(1,0,0,-1,630.8462,380.5918)" d="M0 0C8.895 2.944 11.192 5.953 10.704 11.236 3.898 11.111 4.633 5.652 0 0" fill="#007e59"/>
<path transform="matrix(1,0,0,-1,363.0596,498.5166)" d="M0 0C2.713-1.604 5.338-2.063 7.853-.559 10.883 1.253 11.115 3.467 7.895 5.363 6.106 6.416 5.052 10.539 1.864 6.724 .04 4.543-1.549 2.715 0 0" fill="#006c4c"/>
<path transform="matrix(1,0,0,-1,598.0854,236.26026)" d="M0 0C7.483-9.549 26.091-4.892 31.604 7.909 22.503-.462 9.708 5.939 0 0" fill="#4ab291"/>
<path transform="matrix(1,0,0,-1,571.9692,256.7173)" d="M0 0C-1.224-3.818-2.447-7.636-3.671-11.454 6.93-16.061 8.962-23.833 4.147-33.803 11.809-36.751 17.724-29.923 24.714-31.328 29.541-26.997 36.137-22.379 31.18-15.268 23.884-4.801 15.383 5.174 0 0" fill="#3ead8b"/>
<path transform="matrix(1,0,0,-1,629.6909,303.65577)" d="M0 0C.466 1.437 .932 2.874 1.399 4.31-2.948 5.884-7.898 3.751-7.75 .528-7.59-2.964-2.646 2.145 0 0" fill="#36a886"/>
<path transform="matrix(1,0,0,-1,613.0088,271.10743)" d="M0 0C.649 6.223-1.927 9.878-8.343 10.474-8.258 4.835-1.638 4.401 0 0" fill="#36a886"/>
<path transform="matrix(1,0,0,-1,968.7461,155.12744)" d="M0 0C-.866-.686-1.731-1.372-2.598-2.058-5.962-7.054-9.238-12.01-9.328-18.44-9.381-22.249-9.531-26.684-14.061-28.086-20.037-29.936-20.057-22.686-23.843-20.996-24.574-20.827-25.306-20.666-26.039-20.503-40.635-34.869-41.027-56.751-26.886-67.818-22.574-69.541-18.701-71.853-16.062-75.834-10.64-76.972-8.128-88.393-.107-80.352 1.519-74.43 21.694-70.302 1.641-62.282 3.925-57.583 6.209-52.884 8.494-48.186 14.616-47.722 14.544-43.974 13.127-39.505 7.358-31.754 1.38-24.005 11.849-15.354 12.567-13.968 12.89-12.496 12.846-10.944 12-3.262 4.856-2.972 0 0" fill="#84d0b5"/>
<path transform="matrix(1,0,0,-1,968.6392,235.47949)" d="M0 0C-6.517-2.73-10.164 4.681-15.955 4.517-12.79-2.655-11.126-10.429-.229-10.786 6.951-11.02 5.632-6.691 6.76-3.112 4.507-2.075 2.253-1.037 0 0" fill="#4bb794"/>
<path transform="matrix(1,0,0,-1,915.1621,247.27783)" d="M0 0C6.914-4.936 8.839-9.377 9.524-14.83 15.042-12.421 19.353-8.459 17.485-3.89 15.486 1 8.976-.783 0 0" fill="#31ad86"/>
<path transform="matrix(1,0,0,-1,891.6924,207.36817)" d="M0 0C-.537-4.645-1.073-9.292-1.609-13.937 7.634-10.296 8.23-5.658 0 0" fill="#5ac19e"/>
<path transform="matrix(1,0,0,-1,889.5845,225.96436)" d="M0 0C-.003-6.402 6.525-2.814 8.79-5.747 9.872 2.305 4.335 .234 0 0" fill="#5ac19e"/>
<path transform="matrix(1,0,0,-1,747.2959,72.25195)" d="M0 0C7.6 2.425 11.691 7.611 11.331 15.593 11.281 16.699 7.304 18.983 6.437 18.484-.835 14.288-.891 7.239 .016-.008Z" fill="#95dac1"/>
<path transform="matrix(1,0,0,-1,981.5918,166.07129)" d="M0 0C-.845-.697-1.696-1.386-2.555-2.065-4.564-7.951-12.424-13.92-1.194-19.377 1.517-20.694-4.05-24.589-3.257-27.938-.695-31.384-1.072-34.484-4.354-37.241 5.386-42.2 14.31-30.016 24.091-35.891 29.547-31.763 27.902-23.537 34.925-20.354 23.294-12.577 21.961-23.911 15.011-30.453 16.417-15.271 6.681-8.571 0 0" fill="#70c4a8"/>
<path transform="matrix(1,0,0,-1,789.5254,313.44679)" d="M0 0C12.593 .116 13.073 10.521 17.53 18.693 21.216 25.451 35.982 10.439 38.58 26.334 28.932 49.316 15.836 25.934 4.572 28.609 2.883 29.011 .311 25.691-1.853 24.092-1.853 24.093-1.865 24.004-1.865 24.004-2.107 17.861-8.399 17.113-11.354 13.373-12.109 11.139-12.095 8.979-10.779 6.933-8.136 4.729-4.96 4.414-1.844 5.053 10.698 7.628-6.417-.461 0 0" fill="#31ab85"/>
<path transform="matrix(1,0,0,-1,779.3037,300.229)" d="M0 0C6.412 .786 10.461 3.403 8.356 10.786-7.546 9.953-20.607 3.095-31.635-8.076-21.771-13.435-23.559-23.207-22.911-31.886-9.912-34.078-23.056-16.308-11.519-17.56-11.32-16.856-11.12-16.151-10.9-15.449-13.398-5.978-6.686-2.998 0 0" fill="#20a17d"/>
<path transform="matrix(1,0,0,-1,753.5815,278.3037)" d="M0 0C-.956 2.313-.878 6.542-4.226 5.722-11.287 3.994-10.005-3.084-13.155-7.836-3.722-11.219-4.357-2.073 0 0Z" fill="#48b592"/>
<path transform="matrix(1,0,0,-1,778.4038,325.9873)" d="M0 0C-.131-1.589-.261-3.179-.393-4.768 14.505-20.724 17.641-21.14 31.04-7.361 38.161-.037 46.105-2.83 54.12-4.154 56.08 1.527 60.134 5.44 64.967 8.697 59.428 14.547 52.719 17.099 44.961 14.467 36.458 11.583 24.148 21.657 18.867 5.98 17.716 2.562 11.39 6.899 8.648 10.447 1.112 10.817-.31 6.125 0 0" fill="#64bfa1"/>
<path transform="matrix(1,0,0,-1,778.4038,325.9873)" d="M0 0C2.276 3.985 4.175 8.283 8.647 10.45 8.648 10.447 9.847 11.542 9.847 11.542 9.847 11.542 11.122 12.544 11.123 12.542 14.436 16.476 20.928 17.697 21.442 25.533 14.32 22.515 7.773 18.927 .348 21.104-8.261 21.086-9.777 14.993-10.606 8.312-10.606 8.312-10.62 8.199-10.619 8.198-7.08 5.465-3.54 2.732 0 0" fill="#20a17d"/>
<path transform="matrix(1,0,0,-1,547.8428,600.7935)" d="M0 0C-1.694 2.218-2.692 4.578-1.497 7.382-7.148 11.429-16.028 10.498-18.968 18.72-20.299 21.644-16.385 24.98-22.048 29.85-23.725 20.259-32.418 12.972-20.679 4.793-12.052 10.674-8.337-4.631 0 0" fill="#008b6c"/>
<path transform="matrix(1,0,0,-1,535.8184,542.7861)" d="M0 0C-3.069-5.078-6.13-10.16-9.21-15.232-14.707-24.283-8.668-23.819-2.559-23.305-1.415-15.569 3.444-8.24 0 0" fill="#009374"/>
<path transform="matrix(1,0,0,-1,832.5239,330.1416)" d="M0 0C-12.295 9.806-22.996 8.127-28.954-5.791-31.655-12.102-34.452-11.339-38.735-9.139-44.052-6.411-49.259-3.466-54.513-.613-54.262-6.167-54.01-11.72-53.755-17.273-39.549-22.865-25.347-28.456-11.143-34.045-10.424-27.845-9.707-21.645-8.989-15.444-14.268-7.951-6.412-8.856-3.383-6.676-2.462-6-1.542-5.323-.62-4.647-.413-3.098-.207-1.548 0 0" fill="#53b495"/>
<path transform="matrix(1,0,0,-1,614.9331,412.91944)" d="M0 0C-2.76-3.621-5.52-7.242-8.278-10.864-10.457-18.155-8.89-23.604-.893-25.891 5.897-18.835-4.16-9.646 2.063-2.516 1.362-1.688 .673-.85 0 0" fill="#35a585"/>
<path transform="matrix(1,0,0,-1,944.4014,161.6665)" d="M0 0C-1.791-4.506-5.649-8.761-1.694-13.964L-1.671-13.967C3.369-14.275 8.537-14.252 9.271-7.691 10.024-.968 5.424 .245-.011 .001Z" fill="#84d0b5"/>
<path transform="matrix(1,0,0,-1,511.0205,570.626)" d="M0 0C-.384 2.455-.769 4.909-1.151 7.363-1.866 11.58-3.345 14.231-7.869 10.639-10.276 3.901-7.857-3.972-12.758-10.122-11.533-13.438-10.305-16.754-9.079-20.07-7.838-16.288-6.597-12.505-5.357-8.722-.705-7.575 .275-4.173 0 0" fill="#00896b"/>
<path transform="matrix(1,0,0,-1,511.0205,570.626)" d="M0 0C-1.787-2.907-3.573-5.814-5.358-8.721 6.691-10.208 10.674-4.076 6.044 8.842 4.029 5.895 2.015 2.947 0 0" fill="#45aa8e"/>
<path transform="matrix(1,0,0,-1,829.1401,336.8164)" d="M0 0C-5.874 2.984-11.598 1.783-13.784-3.954-14.822-6.676-11.989-13.167-5.606-8.769-3.737-5.846-1.868-2.923 0 0" fill="#38ab86"/>
<path transform="matrix(1,0,0,-1,503.1519,559.9868)" d="M0 0C2.957 .379 4.934-1.25 6.716-3.277 6.55 2.246 6.384 7.768 6.217 13.291 4.548 11.893 2.88 10.493 1.214 9.093 .81 6.061 .405 3.03 0 0" fill="#2b9e81"/>
<path transform="matrix(1,0,0,-1,944.3906,161.66553)" d="M0 0C13.535-6.33 5.77-10.129-1.66-13.968 3.802-16.97-2.49-28.856 7.642-27.508 17.323-26.22 19.536-18.76 19.124-9.685 18.912-5.013 20.812-.245 21.758 4.48 15.554-2.111 6.849 3.454 0 0" fill="#7bcaaf"/>
<path transform="matrix(1,0,0,-1,978.335,194.00928)" d="M0 0C7.742 6.405 7.595 6.233 .406 12.355-4.704 16.707 2.022 21.312 .702 25.873-10.307 17.541-12.999 8.983 0 0" fill="#7ccaaf"/>
<path transform="matrix(1,0,0,-1,969.2305,195.34961)" d="M0 0C-1.236 2.062-2.784 3.004-4.012 1.586-4.727 .763-4.419-1.311-3.976-2.621-3.748-3.295-2.217-3.529-1.274-3.962-.809-2.513-.342-1.063 0 0" fill="#7ccaaf"/>
<path transform="matrix(1,0,0,-1,767.7974,317.67579)" d="M0 0C3.651 4.264 7.303 8.528 10.955 12.792 11.139 14.344 11.322 15.895 11.506 17.447-4.466 18.188-7.031 14.3 0 0" fill="#41af8c"/>
</g>
</g>
</svg>
